<svg xmlns="http://www.w3.org/2000/svg" xmlns:xlink="http://www.w3.org/1999/xlink" width="1080" zoomAndPan="magnify" viewBox="0 0 810 1012.49997" height="1350" preserveAspectRatio="xMidYMid meet" version="1.0"><defs><clipPath id="b4ebf9be3d"><path d="M 297 409 L 566.921875 409 L 566.921875 559 L 297 559 Z M 297 409 " clip-rule="nonzero"/></clipPath><clipPath id="6b3b2ee285"><path d="M 243.078125 354 L 553 354 L 553 603 L 243.078125 603 Z M 243.078125 354 " clip-rule="nonzero"/></clipPath><clipPath id="3adbee28bc"><path d="M 496 608 L 547 608 L 547 658.691406 L 496 658.691406 Z M 496 608 " clip-rule="nonzero"/></clipPath><clipPath id="0f667b9314"><path d="M 332 608 L 382 608 L 382 658.691406 L 332 658.691406 Z M 332 608 " clip-rule="nonzero"/></clipPath></defs><g clip-path="url(#b4ebf9be3d)"><path fill="#000000" d="M 432.019531 409.882812 C 471.6875 409.882812 511.355469 409.871094 551.023438 409.855469 C 554.449219 409.855469 557.730469 410.019531 560.765625 411.898438 C 564.539062 414.242188 566.933594 419 566.171875 423.328125 C 563.441406 438.808594 560.605469 454.273438 557.882812 469.761719 C 554.480469 488.996094 551.101562 508.230469 547.742188 527.472656 C 547.46875 529.019531 547.066406 530.542969 546.691406 532.070312 C 545.09375 538.539062 541.585938 541.738281 535.035156 542.285156 C 522.265625 543.332031 509.480469 544.171875 496.714844 545.234375 C 483.066406 546.371094 469.433594 547.675781 455.785156 548.882812 C 449.96875 549.398438 444.148438 549.875 438.324219 550.308594 C 424.410156 551.34375 410.523438 552.296875 396.632812 553.371094 C 379.382812 554.699219 362.140625 556.074219 344.898438 557.503906 C 340.648438 557.847656 336.410156 558.535156 332.160156 558.59375 C 326.101562 558.675781 321.84375 555.34375 320.613281 549.335938 C 318.628906 539.667969 317 529.921875 315.238281 520.207031 C 311.261719 498.34375 307.292969 476.476562 303.328125 454.605469 C 301.53125 444.675781 299.710938 434.738281 297.957031 424.796875 C 296.515625 416.613281 301.863281 410.1875 310.324219 409.9375 C 313.929688 409.835938 317.539062 409.914062 321.144531 409.914062 Z M 382.992188 466.566406 L 371.53125 466.566406 C 371.304688 466.566406 371.066406 466.566406 370.859375 466.566406 C 365.160156 466.539062 364.585938 465.847656 365.0625 472.296875 C 365.625 479.90625 366.148438 487.519531 366.78125 495.121094 C 367.058594 498.425781 367.808594 499 371.023438 498.792969 C 376.394531 498.445312 381.757812 498.074219 387.117188 497.683594 C 390.683594 497.414062 394.242188 497 397.8125 496.78125 C 400.132812 496.640625 401.777344 496.285156 400.824219 493.265625 C 400.433594 492.03125 400.6875 490.585938 400.664062 489.234375 C 400.5625 482.734375 400.402344 476.191406 400.394531 469.667969 C 400.394531 467.324219 399.402344 466.507812 397.144531 466.546875 C 392.433594 466.628906 387.71875 466.566406 382.992188 466.566406 Z M 433.273438 424.695312 C 427.886719 424.695312 422.496094 424.753906 417.113281 424.664062 C 414.851562 424.632812 413.808594 425.410156 413.9375 427.78125 C 414.34375 435.390625 414.65625 443.007812 415.015625 450.621094 C 415.09375 452.28125 416.023438 452.945312 417.628906 452.945312 C 420.320312 452.921875 423.015625 452.945312 425.707031 452.945312 C 433.128906 452.945312 440.550781 452.914062 447.9375 452.945312 C 450.039062 452.945312 451.515625 452.261719 451.566406 449.980469 C 451.738281 442.339844 451.847656 434.699219 451.945312 427.0625 C 451.945312 425.441406 451.121094 424.65625 449.441406 424.664062 C 444.054688 424.71875 438.664062 424.695312 433.273438 424.695312 Z M 487.058594 424.695312 C 481.667969 424.695312 476.28125 424.738281 470.890625 424.695312 C 468.507812 424.664062 466.949219 425.421875 466.90625 428.058594 C 466.789062 435.488281 466.703125 442.890625 466.5625 450.304688 C 466.527344 452.371094 467.597656 452.980469 469.480469 452.976562 C 479.8125 452.949219 490.136719 452.976562 500.46875 452.976562 C 501.988281 452.976562 503.089844 452.417969 503.214844 450.734375 C 503.78125 443.136719 504.300781 435.535156 504.894531 427.941406 C 505.070312 425.671875 504.230469 424.652344 501.875 424.6875 C 496.9375 424.757812 491.996094 424.699219 487.058594 424.695312 Z M 380.519531 424.695312 C 375.128906 424.695312 369.738281 424.628906 364.347656 424.71875 C 361.101562 424.769531 360.898438 424.890625 361.101562 428.261719 C 361.527344 435.425781 362.191406 442.574219 362.722656 449.730469 C 362.917969 452.367188 364.480469 452.980469 366.839844 452.980469 C 376.5 452.914062 386.160156 452.894531 395.820312 453.003906 C 398.40625 453.035156 399.484375 452.175781 399.417969 449.550781 C 399.234375 442.355469 399.074219 435.15625 399.117188 427.96875 C 399.117188 425.101562 397.695312 424.644531 395.351562 424.679688 C 390.40625 424.738281 385.464844 424.6875 380.519531 424.695312 Z M 433.492188 466.570312 C 428.542969 466.570312 423.589844 466.617188 418.648438 466.546875 C 416.554688 466.519531 415.183594 466.933594 415.3125 469.472656 C 415.71875 477.554688 416.035156 485.640625 416.398438 493.726562 C 416.472656 495.320312 417.222656 496.179688 418.945312 496.082031 C 427.015625 495.617188 435.09375 495.214844 443.164062 494.730469 C 444.722656 494.632812 446.253906 494.152344 447.804688 494.007812 C 449.851562 493.824219 450.34375 492.617188 450.359375 490.796875 C 450.425781 483.832031 450.441406 476.824219 450.691406 469.84375 C 450.800781 466.953125 449.386719 466.488281 447.007812 466.535156 C 442.5 466.628906 437.996094 466.5625 433.492188 466.570312 Z M 484.105469 466.570312 C 478.929688 466.570312 473.757812 466.59375 468.582031 466.570312 C 466.761719 466.570312 465.582031 467.035156 465.566406 469.1875 C 465.5 476.394531 465.355469 483.582031 465.242188 490.804688 C 465.207031 492.847656 466.167969 493.492188 468.191406 493.355469 C 475.148438 492.890625 482.085938 492.597656 489.027344 492.148438 C 491.707031 491.976562 494.363281 491.480469 497.039062 491.285156 C 498.722656 491.160156 499.398438 490.226562 499.625 488.753906 C 499.898438 486.984375 500.21875 485.21875 500.378906 483.441406 C 500.796875 478.96875 501.085938 474.488281 501.53125 470.027344 C 501.824219 467.085938 501.566406 466.652344 498.28125 466.589844 C 493.5625 466.492188 488.847656 466.558594 484.105469 466.558594 Z M 335.539062 466.570312 C 332.378906 466.570312 329.222656 466.527344 326.070312 466.570312 C 321.480469 466.65625 321.222656 466.726562 321.863281 471.085938 C 323.171875 479.972656 324.753906 488.8125 326.300781 497.660156 C 326.578125 499.265625 327.363281 500.6875 329.382812 500.613281 C 335.679688 500.394531 341.996094 500.339844 348.277344 499.855469 C 351.601562 499.601562 351.988281 498.925781 351.789062 495.460938 C 351.300781 487.601562 350.636719 479.75 350.011719 471.898438 C 349.960938 471.234375 349.546875 470.601562 349.503906 469.941406 C 349.339844 467.515625 348.328125 466.34375 345.671875 466.511719 C 342.304688 466.71875 338.914062 466.5625 335.539062 466.558594 Z M 402.054688 524.703125 L 401.691406 524.703125 C 401.691406 520.871094 401.734375 517.035156 401.691406 513.203125 C 401.660156 510.925781 400.472656 510.074219 398.167969 510.417969 C 395.503906 510.789062 392.808594 510.925781 390.125 511.109375 C 384.09375 511.527344 378.023438 511.992188 371.972656 512.277344 C 369.566406 512.386719 368.867188 513.492188 369.042969 515.683594 C 369.640625 523.082031 370.179688 530.484375 370.75 537.882812 C 370.933594 540.207031 372.644531 540.082031 374.226562 539.980469 C 382.523438 539.441406 390.8125 538.800781 399.113281 538.332031 C 401.527344 538.195312 402.132812 536.988281 402.089844 534.867188 C 402.003906 531.46875 402.054688 528.082031 402.054688 524.703125 Z M 329.511719 424.699219 C 325.25 424.699219 320.988281 424.773438 316.730469 424.671875 C 314.328125 424.613281 313.484375 425.597656 313.902344 427.921875 C 315.242188 435.164062 316.636719 442.402344 317.847656 449.671875 C 318.273438 452.21875 319.613281 452.996094 321.976562 452.976562 C 329.605469 452.921875 337.226562 452.902344 344.847656 452.976562 C 347.304688 453 347.9375 451.8125 347.761719 449.652344 C 347.179688 442.511719 346.601562 435.367188 346.105469 428.226562 C 345.933594 425.738281 344.824219 424.621094 342.292969 424.675781 C 338.03125 424.761719 333.769531 424.699219 329.511719 424.699219 Z M 449.324219 521.675781 C 449.324219 517.472656 449.367188 513.632812 449.324219 509.800781 C 449.324219 508.214844 448.601562 507.5625 446.765625 507.703125 C 440.488281 508.167969 434.1875 508.34375 427.902344 508.738281 C 425 508.925781 422.117188 509.460938 419.214844 509.640625 C 417.117188 509.765625 416.609375 510.828125 416.648438 512.695312 C 416.792969 519.007812 416.820312 525.328125 416.964844 531.644531 C 416.992188 532.75 417.113281 533.992188 417.648438 534.894531 C 418.113281 535.65625 419.25 536.519531 420.054688 536.480469 C 425.660156 536.226562 431.277344 535.882812 436.863281 535.296875 C 440.8125 534.878906 444.71875 534.042969 448.640625 533.394531 C 448.863281 529.359375 449.105469 525.328125 449.324219 521.675781 Z M 464.167969 520.171875 L 463.988281 520.171875 C 463.988281 523.09375 463.957031 526.023438 463.988281 528.949219 C 464.042969 532.855469 464.082031 533.03125 467.621094 532.75 C 476.335938 532.042969 485.035156 531.148438 493.742188 530.34375 C 495.234375 530.207031 496.242188 529.722656 496.371094 527.980469 C 496.835938 521.710938 497.480469 515.441406 497.828125 509.179688 C 498.054688 505.179688 497.511719 504.84375 493.753906 505.199219 C 491.523438 505.410156 489.289062 505.589844 487.046875 505.664062 C 482.324219 505.851562 477.585938 505.738281 472.886719 506.15625 C 464.292969 506.921875 464.304688 507.042969 464.167969 515.441406 C 464.148438 517.003906 464.171875 518.578125 464.171875 520.15625 Z M 535.839844 424.699219 C 532.234375 424.699219 528.636719 424.652344 525.03125 424.699219 C 521.054688 424.757812 520.757812 424.761719 520.277344 428.558594 C 519.375 435.679688 518.882812 442.847656 518.179688 450 C 517.992188 451.9375 518.722656 452.949219 520.789062 452.9375 C 527.996094 452.910156 535.199219 452.882812 542.402344 452.96875 C 544.878906 452.996094 546.039062 451.988281 546.449219 449.53125 C 547.648438 442.230469 549 434.957031 550.335938 427.679688 C 550.691406 425.714844 550.144531 424.660156 548.015625 424.679688 C 543.945312 424.726562 539.875 424.699219 535.839844 424.699219 Z M 355.613281 537.53125 C 355.121094 531.03125 354.648438 524.53125 354.117188 518.03125 C 354.042969 517.148438 353.558594 516.296875 353.464844 515.414062 C 353.253906 513.421875 352.234375 512.78125 350.28125 512.9375 C 344.679688 513.371094 339.066406 513.679688 333.464844 514.050781 C 329.972656 514.28125 329.527344 514.699219 330.101562 518.132812 C 331.371094 525.660156 332.800781 533.160156 334.132812 540.679688 C 334.457031 542.535156 335.394531 543.515625 337.320312 543.367188 C 342.023438 543.007812 346.726562 542.617188 351.429688 542.257812 C 355.832031 541.917969 355.832031 541.933594 355.613281 537.550781 Z M 530.320312 466.5625 C 526.714844 466.5625 523.109375 466.605469 519.511719 466.5625 C 517.523438 466.53125 516.769531 467.449219 516.621094 469.375 C 516.15625 475.414062 515.554688 481.449219 515.03125 487.511719 C 514.796875 490.136719 515.359375 490.765625 517.8125 490.574219 C 521.394531 490.308594 524.960938 489.921875 528.542969 489.6875 C 531.238281 489.515625 533.976562 489.6875 536.632812 489.308594 C 537.710938 489.152344 539.300781 488.027344 539.496094 487.101562 C 540.707031 481.394531 541.578125 475.617188 542.570312 469.863281 C 542.949219 467.640625 542.21875 466.46875 539.789062 466.539062 C 536.628906 466.632812 533.472656 466.5625 530.320312 466.5625 Z M 515.855469 528.828125 C 520.703125 528.367188 525.164062 527.902344 529.636719 527.539062 C 531.449219 527.386719 532.585938 526.609375 532.882812 524.753906 C 534.011719 518.117188 535.167969 511.488281 536.1875 504.835938 C 536.269531 504.3125 535.414062 503.121094 535.03125 503.136719 C 528.304688 503.449219 521.585938 503.84375 514.871094 504.324219 C 513.175781 504.449219 512.984375 505.90625 512.867188 507.335938 C 512.445312 512.707031 511.941406 518.074219 511.507812 523.453125 C 511.414062 524.570312 511.160156 525.773438 511.507812 526.796875 C 511.777344 527.609375 512.730469 528.390625 513.5625 528.75 C 514.324219 529.105469 515.335938 528.828125 515.855469 528.828125 Z M 515.855469 528.828125 " fill-opacity="1" fill-rule="nonzero"/></g><g clip-path="url(#6b3b2ee285)"><path fill="#000000" d="M 437.445312 602.121094 C 402.945312 602.121094 368.441406 602.046875 333.945312 602.183594 C 326.988281 602.214844 321.246094 600.183594 316.4375 595.128906 C 309.691406 588.027344 309.183594 576.769531 313.988281 568.078125 C 315.734375 564.925781 317.699219 561.886719 319.238281 558.640625 C 320 557.03125 320.261719 555.34375 320.023438 553.578125 C 315.4375 527.710938 310.664062 501.871094 306.074219 476.007812 C 301.816406 452.121094 297.726562 428.214844 293.527344 404.3125 C 292.136719 396.347656 290.679688 388.390625 289.386719 380.410156 C 288.890625 377.375 287.53125 375.765625 284.324219 375.242188 C 275.460938 373.792969 266.644531 372.027344 257.832031 370.398438 C 255.183594 369.910156 252.507812 369.558594 249.878906 368.976562 C 245.707031 368.050781 243.097656 364.578125 243.523438 360.71875 C 243.988281 356.683594 247.699219 353.664062 252.25 354.21875 C 257.816406 354.917969 263.324219 356.039062 268.847656 357.039062 C 278.5625 358.800781 288.257812 360.667969 297.992188 362.34375 C 300.34375 362.746094 301.472656 363.679688 301.867188 366.117188 C 302.953125 372.761719 304.324219 379.359375 305.527344 385.988281 C 309.097656 405.65625 312.710938 425.316406 316.171875 445.003906 C 320.488281 469.5625 324.632812 494.152344 328.925781 518.714844 C 331.015625 530.65625 333.269531 542.570312 335.480469 554.46875 C 336.066406 557.613281 335.992188 560.414062 334.042969 563.292969 C 331.421875 567.207031 329.679688 571.707031 327.085938 575.648438 C 323.996094 580.355469 326.789062 587.804688 333.957031 587.164062 C 335.519531 587.023438 337.109375 587.164062 338.6875 587.164062 L 540.273438 587.164062 C 542.074219 587.164062 543.90625 587.019531 545.675781 587.277344 C 546.152344 587.34375 546.617188 587.453125 547.074219 587.609375 C 547.527344 587.765625 547.964844 587.964844 548.382812 588.207031 C 548.800781 588.449219 549.191406 588.726562 549.554688 589.042969 C 549.917969 589.359375 550.246094 589.710938 550.542969 590.089844 C 550.839844 590.46875 551.09375 590.875 551.3125 591.304688 C 551.53125 591.734375 551.703125 592.183594 551.835938 592.648438 C 551.96875 593.109375 552.054688 593.582031 552.09375 594.0625 C 552.132812 594.542969 552.128906 595.023438 552.074219 595.503906 C 551.710938 599.574219 549.316406 601.839844 544.996094 602.085938 C 543.203125 602.195312 541.390625 602.125 539.585938 602.125 Z M 437.445312 602.121094 " fill-opacity="1" fill-rule="nonzero"/></g><g clip-path="url(#3adbee28bc)"><path fill="#000000" d="M 496.472656 633.503906 C 495.546875 621.894531 506.679688 608.304688 521.027344 608.53125 C 534.6875 608.746094 546.015625 618.339844 546.210938 632.910156 C 546.402344 646.660156 536.933594 658.304688 521.316406 658.304688 C 505.082031 658.300781 495.917969 644.769531 496.472656 633.503906 Z M 521.523438 622.101562 C 514.785156 622.101562 509.847656 626.949219 509.960938 633.5 C 510.066406 639.78125 515.394531 644.910156 521.835938 644.917969 C 527.101562 644.917969 532.917969 638.757812 532.871094 633.210938 C 532.800781 627.289062 527.527344 622.117188 521.503906 622.101562 Z M 521.523438 622.101562 " fill-opacity="1" fill-rule="nonzero"/></g><g clip-path="url(#0f667b9314)"><path fill="#000000" d="M 381.730469 633.578125 C 381.675781 647.183594 370.636719 658.582031 357.578125 658.519531 C 343.332031 658.449219 332.796875 647.429688 332.390625 633.128906 C 332.019531 619.847656 343.988281 608.308594 357.289062 608.410156 C 370.050781 608.527344 382.914062 620.257812 381.730469 633.578125 Z M 368.238281 634.195312 C 368.523438 627.695312 364.246094 622.503906 358.296875 622.125 C 351.496094 621.710938 346.410156 626.125 345.992188 632.53125 C 345.5625 639.113281 349.960938 644.335938 356.664062 644.691406 C 357.390625 644.742188 358.113281 644.71875 358.835938 644.621094 C 359.558594 644.523438 360.265625 644.355469 360.953125 644.117188 C 361.644531 643.878906 362.300781 643.574219 362.929688 643.199219 C 363.554688 642.828125 364.140625 642.398438 364.679688 641.90625 C 365.21875 641.417969 365.707031 640.878906 366.136719 640.292969 C 366.570312 639.703125 366.9375 639.078125 367.242188 638.414062 C 367.550781 637.753906 367.785156 637.066406 367.953125 636.355469 C 368.121094 635.644531 368.214844 634.925781 368.238281 634.195312 Z M 368.238281 634.195312 " fill-opacity="1" fill-rule="nonzero"/></g></svg>