<svg xmlns="http://www.w3.org/2000/svg" xmlns:xlink="http://www.w3.org/1999/xlink" width="1080" zoomAndPan="magnify" viewBox="0 0 810 1012.49997" height="1350" preserveAspectRatio="xMidYMid meet" version="1.0"><defs><clipPath id="4942c6450a"><path d="M 243.078125 365 L 564 365 L 564 647.679688 L 243.078125 647.679688 Z M 243.078125 365 " clip-rule="nonzero"/></clipPath></defs><path fill="#100f0d" d="M 318.15625 608.882812 C 318.15625 612.214844 315.445312 614.929688 312.109375 614.929688 L 286.164062 614.929688 C 282.828125 614.929688 280.113281 612.214844 280.113281 608.882812 L 280.113281 588.441406 C 280.113281 585.105469 282.828125 582.390625 286.164062 582.390625 L 312.109375 582.390625 C 315.445312 582.390625 318.15625 585.105469 318.15625 588.441406 Z M 312.109375 576.402344 L 286.164062 576.402344 C 279.527344 576.402344 274.125 581.804688 274.125 588.441406 L 274.125 608.882812 C 274.125 615.519531 279.527344 620.917969 286.164062 620.917969 L 312.109375 620.917969 C 318.746094 620.917969 324.144531 615.519531 324.144531 608.882812 L 324.144531 588.441406 C 324.144531 581.804688 318.746094 576.402344 312.109375 576.402344 " fill-opacity="1" fill-rule="nonzero"/><path fill="#100f0d" d="M 467.390625 580.335938 L 355.746094 580.335938 C 354.089844 580.335938 352.75 581.675781 352.75 583.328125 C 352.75 584.984375 354.089844 586.320312 355.746094 586.320312 L 467.390625 586.320312 C 469.042969 586.320312 470.382812 584.984375 470.382812 583.328125 C 470.382812 581.675781 469.042969 580.335938 467.390625 580.335938 " fill-opacity="1" fill-rule="nonzero"/><path fill="#100f0d" d="M 445.398438 610.996094 L 399.089844 610.996094 C 397.433594 610.996094 396.09375 612.339844 396.09375 613.992188 C 396.09375 615.644531 397.433594 616.984375 399.089844 616.984375 L 445.398438 616.984375 C 447.050781 616.984375 448.394531 615.644531 448.394531 613.992188 C 448.394531 612.339844 447.050781 610.996094 445.398438 610.996094 " fill-opacity="1" fill-rule="nonzero"/><path fill="#100f0d" d="M 380.902344 610.996094 L 355.746094 610.996094 C 354.089844 610.996094 352.75 612.339844 352.75 613.992188 C 352.75 615.644531 354.089844 616.984375 355.746094 616.984375 L 380.902344 616.984375 C 382.558594 616.984375 383.898438 615.644531 383.898438 613.992188 C 383.898438 612.339844 382.558594 610.996094 380.902344 610.996094 " fill-opacity="1" fill-rule="nonzero"/><g clip-path="url(#4942c6450a)"><path fill="#100f0d" d="M 501.4375 524.027344 L 534.511719 544.632812 L 501.4375 595.667969 Z M 495.453125 622.050781 C 495.453125 632.863281 486.652344 641.660156 475.839844 641.660156 L 268.671875 641.660156 C 257.855469 641.660156 249.058594 632.863281 249.058594 622.050781 L 249.058594 495.074219 C 249.058594 484.261719 257.855469 475.460938 268.671875 475.460938 L 284.152344 475.460938 C 284.152344 475.460938 284.152344 475.460938 284.15625 475.460938 L 475.839844 475.460938 C 486.652344 475.460938 495.453125 484.261719 495.453125 495.074219 Z M 327.773438 410.589844 L 418.636719 469.472656 L 289.609375 469.472656 Z M 429.140625 469.472656 C 428.917969 469.121094 428.625 468.808594 428.25 468.570312 L 331.027344 405.566406 L 344.019531 385.519531 L 473.574219 469.472656 Z M 537.769531 539.605469 L 501.4375 516.96875 L 501.4375 495.074219 C 501.4375 492.101562 500.925781 489.25 499.988281 486.597656 L 550.789062 519.519531 Z M 374.585938 374.410156 L 548.441406 487.078125 C 557.515625 492.957031 560.117188 505.125 554.234375 514.199219 L 554.046875 514.488281 L 347.273438 380.492188 L 347.464844 380.203125 C 353.347656 371.128906 365.515625 368.53125 374.585938 374.410156 Z M 551.703125 482.050781 L 377.84375 369.382812 C 372.105469 365.664062 365.265625 364.40625 358.574219 365.832031 C 351.890625 367.261719 346.15625 371.207031 342.441406 376.941406 L 340.621094 379.746094 C 340.621094 379.746094 340.621094 379.746094 340.621094 379.75 L 282.472656 469.472656 L 268.671875 469.472656 C 254.554688 469.472656 243.070312 480.960938 243.070312 495.074219 L 243.070312 622.050781 C 243.070312 636.167969 254.554688 647.648438 268.671875 647.648438 L 475.839844 647.648438 C 489.957031 647.648438 501.4375 636.167969 501.4375 622.050781 L 501.4375 606.675781 L 559.261719 517.457031 C 566.933594 505.609375 563.542969 489.726562 551.703125 482.050781 " fill-opacity="1" fill-rule="nonzero"/></g></svg>