<svg xmlns="http://www.w3.org/2000/svg" xmlns:xlink="http://www.w3.org/1999/xlink" width="1080" zoomAndPan="magnify" viewBox="0 0 810 1012.49997" height="1350" preserveAspectRatio="xMidYMid meet" version="1.0"><defs><clipPath id="80c8404914"><path d="M 243.078125 427 L 506 427 L 506 610 L 243.078125 610 Z M 243.078125 427 " clip-rule="nonzero"/></clipPath><clipPath id="68dc2582c0"><path d="M 409 352 L 566.921875 352 L 566.921875 524 L 409 524 Z M 409 352 " clip-rule="nonzero"/></clipPath></defs><g clip-path="url(#80c8404914)"><path fill="#000000" d="M 490.546875 609.28125 L 324.039062 609.28125 C 321.742188 609.28125 319.730469 607.730469 319.148438 605.507812 L 280.1875 457.457031 L 258.261719 457.457031 C 249.890625 457.457031 243.078125 450.644531 243.078125 442.273438 C 243.078125 433.902344 249.890625 427.09375 258.261719 427.09375 L 304.328125 427.09375 C 306.625 427.09375 308.636719 428.640625 309.222656 430.867188 L 348.179688 578.917969 L 490.546875 578.917969 C 498.675781 578.917969 505.339844 585.28125 505.710938 593.40625 C 505.902344 597.585938 504.414062 601.558594 501.523438 604.585938 C 498.632812 607.613281 494.734375 609.28125 490.546875 609.28125 Z M 327.941406 599.160156 L 490.546875 599.160156 C 491.941406 599.160156 493.242188 598.601562 494.203125 597.59375 C 495.167969 596.585938 495.664062 595.261719 495.601562 593.867188 C 495.476562 591.160156 493.257812 589.039062 490.546875 589.039062 L 344.28125 589.039062 C 341.980469 589.039062 339.972656 587.488281 339.386719 585.265625 L 300.429688 437.214844 L 258.261719 437.214844 C 255.46875 437.214844 253.199219 439.484375 253.199219 442.273438 C 253.199219 445.066406 255.46875 447.335938 258.261719 447.335938 L 284.089844 447.335938 C 286.386719 447.335938 288.398438 448.882812 288.980469 451.109375 Z M 327.941406 599.160156 " fill-opacity="1" fill-rule="nonzero"/></g><path fill="#000000" d="M 344.28125 659.890625 C 327.539062 659.890625 313.921875 646.269531 313.921875 629.523438 C 313.921875 612.78125 327.539062 599.160156 344.28125 599.160156 C 361.019531 599.160156 374.640625 612.78125 374.640625 629.523438 C 374.640625 646.269531 361.019531 659.890625 344.28125 659.890625 Z M 344.28125 609.28125 C 333.121094 609.28125 324.039062 618.363281 324.039062 629.523438 C 324.039062 640.6875 333.121094 649.765625 344.28125 649.765625 C 355.441406 649.765625 364.519531 640.6875 364.519531 629.523438 C 364.519531 618.363281 355.441406 609.28125 344.28125 609.28125 Z M 344.28125 609.28125 " fill-opacity="1" fill-rule="nonzero"/><path fill="#000000" d="M 475.839844 659.890625 C 459.097656 659.890625 445.480469 646.269531 445.480469 629.523438 C 445.480469 612.78125 459.097656 599.160156 475.839844 599.160156 C 492.582031 599.160156 506.199219 612.78125 506.199219 629.523438 C 506.199219 646.269531 492.582031 659.890625 475.839844 659.890625 Z M 475.839844 609.28125 C 464.679688 609.28125 455.601562 618.363281 455.601562 629.523438 C 455.601562 640.6875 464.679688 649.765625 475.839844 649.765625 C 487 649.765625 496.078125 640.6875 496.078125 629.523438 C 496.078125 618.363281 487 609.28125 475.839844 609.28125 Z M 475.839844 609.28125 " fill-opacity="1" fill-rule="nonzero"/><path fill="#000000" d="M 496.078125 568.792969 L 338.953125 568.792969 C 336.160156 568.792969 333.894531 566.527344 333.894531 563.734375 C 333.894531 560.9375 336.160156 558.671875 338.953125 558.671875 L 491.855469 558.671875 L 501.222656 507.152344 C 501.722656 504.402344 504.355469 502.582031 507.105469 503.082031 C 509.855469 503.582031 511.679688 506.214844 511.179688 508.964844 L 501.058594 564.640625 C 500.621094 567.046875 498.523438 568.792969 496.078125 568.792969 Z M 496.078125 568.792969 " fill-opacity="1" fill-rule="nonzero"/><path fill="#000000" d="M 420.953125 465.757812 L 311.839844 465.757812 C 309.042969 465.757812 306.777344 463.492188 306.777344 460.695312 C 306.777344 457.902344 309.042969 455.636719 311.839844 455.636719 L 420.953125 455.636719 C 423.746094 455.636719 426.011719 457.902344 426.011719 460.695312 C 426.011719 463.492188 423.746094 465.757812 420.953125 465.757812 Z M 420.953125 465.757812 " fill-opacity="1" fill-rule="nonzero"/><path fill="#000000" d="M 437.953125 487.820312 L 389.820312 487.820312 C 387.027344 487.820312 384.761719 485.554688 384.761719 482.761719 C 384.761719 479.964844 387.027344 477.699219 389.820312 477.699219 L 437.953125 477.699219 C 440.746094 477.699219 443.011719 479.964844 443.011719 482.761719 C 443.011719 485.554688 440.746094 487.820312 437.953125 487.820312 Z M 437.953125 487.820312 " fill-opacity="1" fill-rule="nonzero"/><path fill="#000000" d="M 470.582031 513.125 L 399.941406 513.125 C 397.144531 513.125 394.878906 510.859375 394.878906 508.066406 C 394.878906 505.269531 397.144531 503.003906 399.941406 503.003906 L 470.582031 503.003906 C 473.378906 503.003906 475.644531 505.269531 475.644531 508.066406 C 475.644531 510.859375 473.378906 513.125 470.582031 513.125 Z M 470.582031 513.125 " fill-opacity="1" fill-rule="nonzero"/><path fill="#000000" d="M 506.199219 513.125 L 506.195312 513.125 C 503.398438 513.125 501.132812 510.859375 501.132812 508.066406 C 501.132812 505.269531 503.398438 503.003906 506.195312 503.003906 C 508.988281 503.003906 511.257812 505.269531 511.257812 508.066406 C 511.257812 510.859375 508.996094 513.125 506.199219 513.125 Z M 506.199219 513.125 " fill-opacity="1" fill-rule="nonzero"/><path fill="#000000" d="M 500.679688 543.492188 L 410.058594 543.492188 C 407.265625 543.492188 405 541.226562 405 538.429688 C 405 535.636719 407.265625 533.371094 410.058594 533.371094 L 500.679688 533.371094 C 503.472656 533.371094 505.738281 535.636719 505.738281 538.429688 C 505.738281 541.226562 503.472656 543.492188 500.679688 543.492188 Z M 500.679688 543.492188 " fill-opacity="1" fill-rule="nonzero"/><g clip-path="url(#68dc2582c0)"><path fill="#000000" d="M 488.390625 523.246094 C 487.632812 523.246094 486.875 523.078125 486.175781 522.738281 C 485.460938 522.390625 468.503906 514.078125 450.65625 500.421875 C 430.832031 485.253906 418.070312 469.804688 412.722656 454.507812 C 410.820312 449.09375 409.859375 443.644531 409.859375 438.3125 L 409.859375 386.703125 C 409.859375 385.335938 410.410156 384.027344 411.390625 383.074219 C 412.371094 382.125 413.683594 381.601562 415.0625 381.644531 C 428.105469 382.019531 440.886719 379.699219 453.09375 374.753906 C 464.800781 370.007812 475.496094 363.03125 484.882812 354.011719 C 486.84375 352.128906 489.9375 352.128906 491.894531 354.011719 C 501.28125 363.03125 511.976562 370.007812 523.683594 374.753906 C 535.890625 379.699219 548.675781 382.015625 561.71875 381.644531 C 563.097656 381.601562 564.40625 382.121094 565.386719 383.074219 C 566.367188 384.027344 566.921875 385.335938 566.921875 386.703125 L 566.921875 438.316406 C 566.921875 443.644531 565.957031 449.097656 564.054688 454.511719 C 558.710938 469.804688 545.945312 485.253906 526.121094 500.421875 C 508.273438 514.082031 491.316406 522.390625 490.605469 522.738281 C 489.902344 523.078125 489.148438 523.246094 488.390625 523.246094 Z M 419.976562 391.78125 L 419.976562 438.316406 C 419.976562 442.5 420.75 446.820312 422.273438 451.160156 C 426.894531 464.378906 438.835938 478.632812 456.808594 492.386719 C 470.199219 502.632812 483.300781 509.84375 488.386719 512.503906 C 493.480469 509.839844 506.609375 502.609375 519.972656 492.386719 C 537.945312 478.632812 549.886719 464.382812 554.503906 451.167969 C 556.027344 446.824219 556.800781 442.503906 556.800781 438.316406 L 556.800781 391.78125 C 544.160156 391.515625 531.769531 388.949219 519.886719 384.132812 C 508.417969 379.488281 497.84375 372.90625 488.390625 364.542969 C 478.933594 372.90625 468.359375 379.488281 456.894531 384.132812 C 445.011719 388.949219 432.617188 391.515625 419.976562 391.78125 Z M 419.976562 391.78125 " fill-opacity="1" fill-rule="nonzero"/></g><path fill="#000000" d="M 474.21875 467.578125 C 474.175781 467.578125 474.132812 467.578125 474.089844 467.578125 C 472.734375 467.542969 471.449219 466.964844 470.523438 465.976562 L 446.84375 440.671875 C 444.933594 438.632812 445.042969 435.429688 447.082031 433.519531 C 449.125 431.609375 452.324219 431.714844 454.234375 433.753906 L 474.40625 455.308594 L 517.9375 413.328125 C 519.949219 411.386719 523.152344 411.445312 525.09375 413.457031 C 527.03125 415.46875 526.972656 418.675781 524.960938 420.613281 L 477.734375 466.160156 C 476.789062 467.070312 475.527344 467.578125 474.21875 467.578125 Z M 474.21875 467.578125 " fill-opacity="1" fill-rule="nonzero"/></svg>