<svg xmlns="http://www.w3.org/2000/svg" xmlns:xlink="http://www.w3.org/1999/xlink" width="1080" zoomAndPan="magnify" viewBox="0 0 810 1012.49997" height="1350" preserveAspectRatio="xMidYMid meet" version="1.0"><defs><clipPath id="9bfdd7f190"><path d="M 309 463 L 566.921875 463 L 566.921875 564 L 309 564 Z M 309 463 " clip-rule="nonzero"/></clipPath><clipPath id="dff09b1736"><path d="M 243.078125 429.289062 L 375 429.289062 L 375 582.964844 L 243.078125 582.964844 Z M 243.078125 429.289062 " clip-rule="nonzero"/></clipPath></defs><g clip-path="url(#9bfdd7f190)"><path fill="#1a1a1a" d="M 557.609375 463.964844 L 309.203125 463.964844 L 309.203125 563.324219 L 557.609375 563.324219 C 562.71875 563.324219 566.859375 559.179688 566.859375 554.058594 L 566.859375 473.234375 C 566.859375 468.113281 562.71875 463.964844 557.609375 463.964844 Z M 557.609375 463.964844 " fill-opacity="1" fill-rule="nonzero"/></g><path fill="#ffffff" d="M 554.5 473.6875 L 309.203125 473.6875 L 309.203125 553.667969 L 554.5 553.667969 C 555.988281 553.667969 557.15625 552.503906 557.15625 551.011719 L 557.15625 476.34375 C 557.21875 474.855469 555.988281 473.6875 554.5 473.6875 Z M 554.5 473.6875 " fill-opacity="1" fill-rule="nonzero"/><path fill="#1a1a1a" d="M 312.503906 476.929688 L 553.917969 476.929688 L 553.917969 550.363281 L 312.503906 550.363281 Z M 312.503906 476.929688 " fill-opacity="1" fill-rule="nonzero"/><g clip-path="url(#dff09b1736)"><path fill="#1a1a1a" d="M 373.519531 443.226562 C 372.484375 441.992188 370.933594 441.347656 369.316406 441.347656 C 368.796875 441.347656 368.28125 441.410156 367.761719 441.539062 C 367.4375 441.605469 367.113281 441.734375 366.855469 441.800781 C 361.746094 443.226562 356.4375 443.9375 351.066406 443.9375 C 337.480469 443.9375 324.019531 439.273438 313.214844 430.714844 C 312.050781 429.808594 310.628906 429.289062 309.140625 429.289062 C 307.652344 429.289062 306.226562 429.808594 305.0625 430.714844 C 294.257812 439.207031 280.796875 443.9375 267.210938 443.9375 C 261.902344 443.9375 256.597656 443.226562 251.421875 441.800781 C 251.097656 441.734375 250.773438 441.605469 250.453125 441.539062 C 249.933594 441.410156 249.414062 441.347656 248.898438 441.347656 C 247.28125 441.347656 245.792969 442.058594 244.691406 443.226562 C 243.65625 444.457031 243.140625 446.011719 243.398438 447.632812 L 253.492188 523.078125 C 254.269531 529.621094 256.273438 535.84375 259.445312 541.613281 C 262.679688 547.382812 266.949219 552.4375 272.191406 556.519531 L 303.445312 581.019531 C 305.0625 582.25 307.070312 582.964844 309.074219 582.964844 L 309.140625 582.964844 C 311.210938 582.964844 313.152344 582.25 314.769531 581.019531 L 346.019531 556.519531 C 351.261719 552.4375 355.53125 547.445312 358.769531 541.613281 C 362.003906 535.84375 364.007812 529.621094 364.722656 523.078125 L 374.816406 447.632812 C 375.074219 446.011719 374.621094 444.390625 373.519531 443.226562 Z M 373.519531 443.226562 " fill-opacity="1" fill-rule="nonzero"/></g><path fill="#ffffff" d="M 278.144531 548.808594 C 269.796875 542.261719 264.296875 532.472656 263.132812 521.972656 L 263.132812 521.84375 L 253.816406 452.363281 C 258.214844 453.207031 262.679688 453.660156 267.144531 453.660156 C 282.15625 453.660156 296.910156 448.734375 309.074219 439.855469 C 321.238281 448.800781 336.054688 453.660156 351.003906 453.660156 C 355.46875 453.660156 359.933594 453.207031 364.332031 452.363281 L 355.015625 521.84375 L 355.015625 521.910156 C 353.785156 532.472656 348.351562 542.261719 340.003906 548.742188 L 309.785156 572.398438 C 309.332031 572.722656 308.75 572.722656 308.296875 572.398438 Z M 278.144531 548.808594 " fill-opacity="1" fill-rule="nonzero"/><path fill="#1a1a1a" d="M 280.472656 545.824219 C 272.902344 539.929688 267.988281 531.046875 266.886719 521.519531 L 266.886719 521.390625 L 258.214844 456.835938 C 261.191406 457.226562 264.167969 457.355469 267.144531 457.355469 C 281.898438 457.355469 296.78125 452.753906 309.140625 444.390625 C 321.496094 452.753906 336.316406 457.355469 351.066406 457.355469 C 354.042969 457.355469 357.019531 457.160156 359.996094 456.835938 L 351.390625 521.457031 L 351.390625 521.519531 C 350.292969 531.046875 345.308594 539.929688 337.804688 545.824219 L 309.140625 568.25 Z M 280.472656 545.824219 " fill-opacity="1" fill-rule="nonzero"/><path fill="#ffffff" d="M 321.886719 473.105469 C 318.519531 469.667969 314.054688 467.789062 309.269531 467.726562 C 304.480469 467.660156 299.949219 469.539062 296.519531 472.910156 C 293.09375 476.28125 291.214844 480.753906 291.152344 485.550781 L 291.023438 503.503906 L 296.261719 503.566406 L 296.390625 489.242188 L 296.390625 485.613281 C 296.457031 478.613281 302.214844 472.910156 309.203125 472.976562 C 316.191406 473.039062 321.886719 478.808594 321.820312 485.808594 L 321.820312 489.4375 L 321.757812 498.511719 L 321.691406 503.761719 L 326.933594 503.828125 L 327.0625 485.875 C 327.128906 481.078125 325.25 476.539062 321.886719 473.105469 Z M 321.886719 473.105469 " fill-opacity="1" fill-rule="nonzero"/><path fill="#ffffff" d="M 327.644531 495.917969 L 290.4375 495.59375 C 287.332031 495.59375 284.746094 498.058594 284.746094 501.234375 L 285.070312 529.558594 C 285.070312 532.214844 287.269531 534.417969 289.921875 534.417969 L 328.617188 534.742188 C 331.332031 534.742188 333.597656 532.539062 333.53125 529.753906 L 333.210938 501.621094 C 333.273438 498.511719 330.75 495.984375 327.644531 495.917969 Z M 311.921875 524.566406 L 305.582031 524.503906 C 304.933594 524.503906 304.542969 523.917969 304.675781 523.269531 L 306.875 516.140625 C 305.449219 515.363281 304.480469 513.808594 304.738281 512.058594 C 304.933594 510.179688 306.484375 508.621094 308.363281 508.429688 C 310.820312 508.167969 312.957031 510.113281 312.890625 512.578125 C 312.890625 514.195312 311.984375 515.558594 310.628906 516.207031 L 312.699219 523.402344 C 313.019531 523.917969 312.570312 524.566406 311.921875 524.566406 Z M 311.921875 524.566406 " fill-opacity="1" fill-rule="nonzero"/><path fill="#ffffff" d="M 426.386719 508.6875 L 426.386719 493.652344 L 423.863281 495.59375 C 422.761719 496.4375 421.144531 496.242188 420.304688 495.078125 C 419.460938 493.976562 419.71875 492.417969 420.820312 491.578125 L 425.738281 487.945312 C 426.386719 487.429688 427.226562 487.167969 428.066406 487.167969 C 430.265625 487.167969 432.015625 488.917969 432.015625 491.125 L 432.015625 508.621094 C 432.015625 510.179688 430.71875 511.476562 429.167969 511.476562 C 427.613281 511.539062 426.386719 510.242188 426.386719 508.6875 Z M 426.386719 508.6875 " fill-opacity="1" fill-rule="nonzero"/><path fill="#ffffff" d="M 459.386719 499.289062 C 459.386719 501.039062 459.191406 502.660156 458.867188 504.214844 C 458.542969 505.769531 457.960938 507.132812 457.25 508.296875 C 456.472656 509.464844 455.503906 510.4375 454.335938 511.085938 C 453.109375 511.796875 451.683594 512.121094 449.9375 512.121094 C 448.191406 512.121094 446.765625 511.796875 445.539062 511.085938 C 444.308594 510.371094 443.339844 509.464844 442.5625 508.296875 C 441.785156 507.132812 441.265625 505.769531 440.878906 504.214844 C 440.554688 502.660156 440.363281 501.039062 440.363281 499.289062 C 440.363281 497.539062 440.554688 495.917969 440.878906 494.363281 C 441.203125 492.808594 441.785156 491.445312 442.5625 490.28125 C 443.339844 489.113281 444.308594 488.207031 445.539062 487.492188 C 446.765625 486.78125 448.191406 486.457031 449.9375 486.457031 C 451.683594 486.457031 453.109375 486.78125 454.335938 487.492188 C 455.566406 488.207031 456.539062 489.113281 457.25 490.28125 C 458.027344 491.445312 458.542969 492.808594 458.867188 494.363281 C 459.253906 495.984375 459.386719 497.605469 459.386719 499.289062 Z M 453.496094 499.289062 C 453.496094 498.511719 453.433594 497.667969 453.367188 496.761719 C 453.300781 495.855469 453.109375 495.011719 452.847656 494.167969 C 452.589844 493.390625 452.265625 492.742188 451.75 492.160156 C 451.296875 491.640625 450.648438 491.382812 449.9375 491.382812 C 449.160156 491.382812 448.578125 491.640625 448.0625 492.160156 C 447.609375 492.679688 447.21875 493.390625 446.960938 494.167969 C 446.703125 494.945312 446.507812 495.789062 446.445312 496.761719 C 446.378906 497.667969 446.3125 498.511719 446.3125 499.289062 C 446.3125 500.066406 446.378906 500.910156 446.445312 501.882812 C 446.507812 502.789062 446.703125 503.695312 446.960938 504.476562 C 447.21875 505.253906 447.609375 505.902344 448.0625 506.484375 C 448.515625 507.003906 449.160156 507.261719 449.9375 507.261719 C 450.714844 507.261719 451.296875 507.003906 451.75 506.484375 C 452.203125 505.964844 452.589844 505.253906 452.847656 504.476562 C 453.109375 503.695312 453.300781 502.855469 453.367188 501.882812 C 453.433594 500.976562 453.496094 500.066406 453.496094 499.289062 Z M 453.496094 499.289062 " fill-opacity="1" fill-rule="nonzero"/><path fill="#ffffff" d="M 481.578125 499.289062 C 481.578125 501.039062 481.382812 502.660156 481.0625 504.214844 C 480.738281 505.769531 480.15625 507.132812 479.445312 508.296875 C 478.667969 509.464844 477.695312 510.4375 476.53125 511.085938 C 475.300781 511.796875 473.878906 512.121094 472.132812 512.121094 C 470.386719 512.121094 468.960938 511.796875 467.730469 511.085938 C 466.503906 510.371094 465.53125 509.464844 464.753906 508.296875 C 463.980469 507.132812 463.460938 505.769531 463.074219 504.214844 C 462.75 502.660156 462.554688 501.039062 462.554688 499.289062 C 462.554688 497.539062 462.75 495.917969 463.074219 494.363281 C 463.398438 492.808594 463.980469 491.445312 464.753906 490.28125 C 465.53125 489.113281 466.503906 488.207031 467.730469 487.492188 C 468.960938 486.78125 470.386719 486.457031 472.132812 486.457031 C 473.878906 486.457031 475.300781 486.78125 476.53125 487.492188 C 477.761719 488.207031 478.730469 489.113281 479.445312 490.28125 C 480.21875 491.445312 480.738281 492.808594 481.0625 494.363281 C 481.382812 495.984375 481.578125 497.605469 481.578125 499.289062 Z M 475.691406 499.289062 C 475.691406 498.511719 475.625 497.667969 475.5625 496.761719 C 475.496094 495.855469 475.300781 495.011719 475.042969 494.167969 C 474.785156 493.390625 474.460938 492.742188 473.945312 492.160156 C 473.492188 491.640625 472.84375 491.382812 472.132812 491.382812 C 471.355469 491.382812 470.773438 491.640625 470.253906 492.160156 C 469.800781 492.679688 469.414062 493.390625 469.15625 494.167969 C 468.898438 494.945312 468.703125 495.789062 468.636719 496.761719 C 468.574219 497.667969 468.507812 498.511719 468.507812 499.289062 C 468.507812 500.066406 468.574219 500.910156 468.636719 501.882812 C 468.703125 502.789062 468.898438 503.695312 469.15625 504.476562 C 469.414062 505.253906 469.800781 505.902344 470.253906 506.484375 C 470.707031 507.003906 471.355469 507.261719 472.132812 507.261719 C 472.910156 507.261719 473.492188 507.003906 473.945312 506.484375 C 474.398438 505.964844 474.785156 505.253906 475.042969 504.476562 C 475.300781 503.695312 475.496094 502.855469 475.5625 501.882812 C 475.625 500.976562 475.691406 500.066406 475.691406 499.289062 Z M 475.691406 499.289062 " fill-opacity="1" fill-rule="nonzero"/><path fill="#ffffff" d="M 497.171875 493.328125 C 497.171875 494.234375 496.980469 495.078125 496.65625 495.855469 C 496.332031 496.632812 495.878906 497.34375 495.296875 497.929688 C 494.714844 498.511719 494.003906 498.964844 493.226562 499.289062 C 492.449219 499.613281 491.609375 499.808594 490.703125 499.808594 C 489.796875 499.808594 488.957031 499.613281 488.179688 499.289062 C 487.402344 498.964844 486.691406 498.511719 486.109375 497.929688 C 485.527344 497.34375 485.074219 496.632812 484.75 495.855469 C 484.425781 495.078125 484.230469 494.234375 484.230469 493.328125 C 484.230469 492.417969 484.425781 491.578125 484.75 490.734375 C 485.074219 489.957031 485.527344 489.242188 486.109375 488.660156 C 486.691406 488.078125 487.402344 487.625 488.179688 487.300781 C 488.957031 486.976562 489.796875 486.78125 490.703125 486.78125 C 491.609375 486.78125 492.449219 486.976562 493.226562 487.300781 C 494.003906 487.625 494.714844 488.078125 495.296875 488.660156 C 495.878906 489.242188 496.332031 489.957031 496.65625 490.734375 C 497.042969 491.511719 497.171875 492.355469 497.171875 493.328125 Z M 493.355469 493.328125 C 493.355469 492.613281 493.097656 491.964844 492.578125 491.445312 C 492.0625 490.929688 491.414062 490.667969 490.703125 490.667969 C 489.992188 490.667969 489.34375 490.929688 488.824219 491.445312 C 488.308594 491.964844 488.050781 492.613281 488.050781 493.328125 C 488.050781 494.039062 488.308594 494.6875 488.824219 495.207031 C 489.34375 495.726562 489.992188 495.984375 490.703125 495.984375 C 491.414062 495.984375 492.0625 495.726562 492.578125 495.207031 C 493.097656 494.621094 493.355469 494.039062 493.355469 493.328125 Z M 491.867188 511.992188 C 490.960938 511.539062 490.636719 510.503906 491.15625 509.59375 L 503.644531 487.492188 C 504.097656 486.714844 505.066406 486.390625 505.84375 486.78125 L 505.972656 486.84375 C 506.878906 487.300781 507.203125 488.402344 506.683594 489.242188 L 494.066406 511.34375 C 493.679688 512.121094 492.707031 512.382812 491.867188 511.992188 Z M 513.671875 505.445312 C 513.671875 506.355469 513.480469 507.195312 513.15625 507.976562 C 512.832031 508.753906 512.378906 509.464844 511.796875 510.046875 C 511.214844 510.632812 510.503906 511.085938 509.726562 511.410156 C 508.949219 511.734375 508.109375 511.929688 507.203125 511.929688 C 506.296875 511.929688 505.453125 511.734375 504.679688 511.410156 C 503.902344 511.085938 503.191406 510.632812 502.609375 510.046875 C 502.027344 509.464844 501.574219 508.753906 501.25 507.976562 C 500.925781 507.195312 500.730469 506.355469 500.730469 505.445312 C 500.730469 504.539062 500.925781 503.695312 501.25 502.917969 C 501.574219 502.140625 502.027344 501.429688 502.609375 500.84375 C 503.191406 500.261719 503.902344 499.808594 504.679688 499.484375 C 505.453125 499.160156 506.296875 498.964844 507.203125 498.964844 C 508.109375 498.964844 508.949219 499.160156 509.726562 499.484375 C 510.503906 499.808594 511.214844 500.261719 511.796875 500.84375 C 512.378906 501.429688 512.832031 502.140625 513.15625 502.917969 C 513.480469 503.695312 513.671875 504.539062 513.671875 505.445312 Z M 509.855469 505.445312 C 509.855469 505.058594 509.789062 504.734375 509.660156 504.410156 C 509.53125 504.085938 509.335938 503.761719 509.078125 503.566406 C 508.820312 503.308594 508.5625 503.113281 508.238281 502.984375 C 507.914062 502.855469 507.589844 502.789062 507.203125 502.789062 C 506.492188 502.789062 505.84375 503.050781 505.324219 503.566406 C 504.808594 504.085938 504.550781 504.734375 504.550781 505.445312 C 504.550781 506.160156 504.808594 506.808594 505.324219 507.328125 C 505.84375 507.84375 506.492188 508.105469 507.203125 508.105469 C 507.589844 508.105469 507.914062 508.039062 508.238281 507.910156 C 508.5625 507.78125 508.820312 507.585938 509.078125 507.328125 C 509.335938 507.066406 509.53125 506.808594 509.660156 506.484375 C 509.726562 506.160156 509.855469 505.835938 509.855469 505.445312 Z M 509.855469 505.445312 " fill-opacity="1" fill-rule="nonzero"/><path fill="#ffffff" d="M 417.003906 525.605469 C 416.292969 526.382812 415.125 526.511719 414.21875 525.992188 C 414.089844 525.929688 413.960938 525.863281 413.832031 525.796875 C 413.121094 525.472656 412.410156 525.28125 411.761719 525.28125 C 411.4375 525.28125 411.050781 525.28125 410.726562 525.34375 C 410.402344 525.410156 410.078125 525.539062 409.753906 525.667969 C 409.496094 525.863281 409.238281 526.058594 409.042969 526.316406 C 408.851562 526.578125 408.785156 526.964844 408.785156 527.355469 C 408.785156 527.742188 408.851562 528.003906 408.980469 528.261719 C 409.109375 528.519531 409.367188 528.714844 409.625 528.910156 C 409.886719 529.105469 410.273438 529.234375 410.660156 529.429688 C 411.050781 529.558594 411.503906 529.753906 412.019531 529.882812 C 412.730469 530.140625 413.507812 530.402344 414.285156 530.660156 C 415.0625 530.917969 415.773438 531.308594 416.421875 531.828125 C 417.066406 532.28125 417.585938 532.929688 418.039062 533.640625 C 418.492188 534.355469 418.683594 535.261719 418.683594 536.296875 C 418.683594 537.53125 418.492188 538.566406 418.039062 539.472656 C 417.585938 540.382812 417.003906 541.09375 416.226562 541.679688 C 415.449219 542.261719 414.609375 542.714844 413.636719 542.972656 C 412.667969 543.234375 411.632812 543.429688 410.597656 543.429688 C 409.042969 543.429688 407.621094 543.167969 406.195312 542.648438 C 405.808594 542.519531 405.421875 542.328125 405.03125 542.132812 C 403.671875 541.417969 403.414062 539.605469 404.449219 538.566406 L 404.515625 538.4375 C 405.292969 537.660156 406.457031 537.53125 407.363281 538.113281 C 407.554688 538.242188 407.816406 538.371094 408.074219 538.503906 C 408.914062 538.957031 409.753906 539.148438 410.597656 539.148438 C 410.984375 539.148438 411.375 539.085938 411.695312 539.019531 C 412.085938 538.957031 412.34375 538.828125 412.667969 538.632812 C 412.925781 538.4375 413.183594 538.179688 413.316406 537.917969 C 413.445312 537.59375 413.574219 537.269531 413.574219 536.816406 C 413.574219 536.429688 413.445312 536.105469 413.25 535.78125 C 413.054688 535.519531 412.730469 535.261719 412.410156 535.003906 C 412.019531 534.742188 411.566406 534.546875 411.050781 534.355469 C 410.46875 534.160156 409.886719 533.964844 409.171875 533.707031 C 408.460938 533.511719 407.816406 533.253906 407.167969 532.929688 C 406.519531 532.605469 405.9375 532.214844 405.421875 531.761719 C 404.902344 531.308594 404.515625 530.722656 404.191406 530.078125 C 403.867188 529.429688 403.738281 528.585938 403.738281 527.613281 C 403.738281 526.445312 403.996094 525.410156 404.449219 524.566406 C 404.902344 523.722656 405.550781 523.011719 406.328125 522.492188 C 407.101562 521.972656 408.007812 521.585938 408.980469 521.328125 C 409.949219 521.066406 410.984375 520.9375 411.957031 520.9375 C 413.183594 520.9375 414.414062 521.132812 415.644531 521.585938 C 415.902344 521.652344 416.097656 521.78125 416.355469 521.84375 C 417.714844 522.558594 418.101562 524.4375 417.003906 525.605469 Z M 417.003906 525.605469 " fill-opacity="1" fill-rule="nonzero"/><path fill="#ffffff" d="M 422.113281 540.835938 L 422.113281 523.59375 C 422.113281 522.429688 423.019531 521.519531 424.183594 521.519531 L 434.34375 521.519531 C 435.507812 521.519531 436.414062 522.429688 436.414062 523.59375 L 436.414062 523.789062 C 436.414062 524.957031 435.507812 525.863281 434.34375 525.863281 L 427.03125 525.863281 L 427.03125 529.882812 L 433.828125 529.882812 C 434.992188 529.882812 435.898438 530.789062 435.898438 531.957031 C 435.898438 533.121094 434.992188 534.03125 433.828125 534.03125 L 427.03125 534.03125 L 427.03125 538.4375 L 434.863281 538.4375 C 436.027344 538.4375 436.933594 539.34375 436.933594 540.511719 L 436.933594 540.769531 C 436.933594 541.9375 436.027344 542.84375 434.863281 542.84375 L 424.121094 542.84375 C 423.019531 542.84375 422.113281 541.9375 422.113281 540.835938 Z M 422.113281 540.835938 " fill-opacity="1" fill-rule="nonzero"/><path fill="#ffffff" d="M 455.566406 542.519531 C 454.207031 543.167969 452.589844 543.492188 450.777344 543.492188 C 449.160156 543.492188 447.609375 543.234375 446.25 542.648438 C 444.824219 542.132812 443.660156 541.355469 442.625 540.316406 C 441.589844 539.34375 440.8125 538.113281 440.230469 536.753906 C 439.648438 535.390625 439.390625 533.835938 439.390625 532.148438 C 439.390625 530.464844 439.714844 528.910156 440.296875 527.484375 C 440.878906 526.121094 441.71875 524.890625 442.753906 523.917969 C 443.789062 522.945312 445.019531 522.167969 446.445312 521.652344 C 447.867188 521.132812 449.355469 520.871094 450.972656 520.871094 C 452.460938 520.871094 453.949219 521.132812 455.4375 521.652344 C 455.824219 521.78125 456.214844 521.972656 456.539062 522.105469 C 457.960938 522.816406 458.21875 524.695312 457.121094 525.796875 L 457.054688 525.863281 C 456.277344 526.640625 455.113281 526.769531 454.207031 526.1875 C 454.015625 526.058594 453.820312 525.992188 453.625 525.929688 C 452.847656 525.605469 452.074219 525.472656 451.230469 525.472656 C 450.324219 525.472656 449.484375 525.667969 448.773438 525.992188 C 447.996094 526.316406 447.351562 526.769531 446.832031 527.355469 C 446.3125 527.9375 445.863281 528.652344 445.539062 529.429688 C 445.214844 530.207031 445.085938 531.113281 445.085938 532.019531 C 445.085938 532.992188 445.214844 533.898438 445.539062 534.679688 C 445.863281 535.457031 446.25 536.167969 446.765625 536.753906 C 447.285156 537.335938 447.933594 537.789062 448.707031 538.113281 C 449.421875 538.4375 450.261719 538.566406 451.167969 538.566406 C 452.203125 538.566406 453.109375 538.371094 453.820312 537.984375 C 454.015625 537.855469 454.207031 537.789062 454.335938 537.660156 C 455.242188 537.078125 456.410156 537.207031 457.25 537.917969 L 457.378906 537.984375 C 458.480469 539.019531 458.285156 540.835938 456.992188 541.679688 C 456.410156 542.066406 456.019531 542.324219 455.566406 542.519531 Z M 455.566406 542.519531 " fill-opacity="1" fill-rule="nonzero"/><path fill="#ffffff" d="M 478.667969 538.371094 C 478.214844 539.410156 477.632812 540.316406 476.789062 541.09375 C 476.015625 541.871094 475.042969 542.457031 473.878906 542.84375 C 472.714844 543.296875 471.484375 543.492188 470.125 543.492188 C 468.703125 543.492188 467.472656 543.296875 466.308594 542.84375 C 465.207031 542.390625 464.238281 541.808594 463.460938 541.09375 C 462.683594 540.316406 462.101562 539.410156 461.648438 538.371094 C 461.195312 537.335938 461.003906 536.167969 461.003906 534.871094 L 461.003906 524.179688 C 461.003906 522.753906 462.167969 521.652344 463.527344 521.652344 C 464.949219 521.652344 466.050781 522.816406 466.050781 524.179688 L 466.050781 534.484375 C 466.050781 535.066406 466.113281 535.648438 466.242188 536.167969 C 466.371094 536.6875 466.632812 537.140625 466.957031 537.59375 C 467.277344 537.984375 467.667969 538.308594 468.183594 538.566406 C 468.703125 538.828125 469.285156 538.957031 470.0625 538.957031 C 470.835938 538.957031 471.421875 538.828125 471.9375 538.566406 C 472.457031 538.308594 472.84375 537.984375 473.167969 537.59375 C 473.492188 537.207031 473.75 536.6875 473.878906 536.167969 C 474.007812 535.648438 474.074219 535.066406 474.074219 534.484375 L 474.074219 524.179688 C 474.074219 522.753906 475.238281 521.652344 476.597656 521.652344 C 478.019531 521.652344 479.121094 522.816406 479.121094 524.179688 L 479.121094 534.871094 C 479.3125 536.105469 479.054688 537.269531 478.667969 538.371094 Z M 478.667969 538.371094 " fill-opacity="1" fill-rule="nonzero"/><path fill="#ffffff" d="M 494.261719 541.808594 L 490.183594 534.417969 L 488.4375 534.417969 L 488.4375 540.382812 C 488.4375 541.742188 487.335938 542.910156 485.914062 542.910156 C 484.554688 542.910156 483.390625 541.808594 483.390625 540.382812 L 483.390625 524.113281 C 483.390625 522.753906 484.492188 521.585938 485.914062 521.585938 L 491.542969 521.585938 C 492.578125 521.585938 493.550781 521.714844 494.519531 521.910156 C 495.492188 522.105469 496.332031 522.492188 497.109375 522.945312 C 497.882812 523.464844 498.46875 524.113281 498.984375 524.957031 C 499.4375 525.796875 499.695312 526.835938 499.695312 528.003906 C 499.695312 529.429688 499.308594 530.660156 498.53125 531.632812 C 497.753906 532.605469 496.65625 533.316406 495.296875 533.769531 L 499.371094 540.511719 C 500.019531 541.546875 499.242188 542.910156 498.015625 542.910156 L 496.007812 542.910156 C 495.296875 542.84375 494.585938 542.457031 494.261719 541.808594 Z M 494.648438 528.066406 C 494.648438 527.546875 494.519531 527.160156 494.324219 526.835938 C 494.132812 526.511719 493.871094 526.253906 493.484375 526.121094 C 493.160156 525.929688 492.773438 525.863281 492.382812 525.796875 C 491.996094 525.734375 491.542969 525.734375 491.21875 525.734375 L 488.503906 525.734375 L 488.503906 530.722656 L 490.960938 530.722656 C 491.414062 530.722656 491.800781 530.660156 492.253906 530.59375 C 492.707031 530.53125 493.097656 530.398438 493.484375 530.207031 C 493.871094 530.011719 494.132812 529.753906 494.390625 529.429688 C 494.519531 529.105469 494.648438 528.652344 494.648438 528.066406 Z M 494.648438 528.066406 " fill-opacity="1" fill-rule="nonzero"/><path fill="#ffffff" d="M 503.382812 540.835938 L 503.382812 523.59375 C 503.382812 522.429688 504.289062 521.519531 505.453125 521.519531 L 515.613281 521.519531 C 516.777344 521.519531 517.683594 522.429688 517.683594 523.59375 L 517.683594 523.789062 C 517.683594 524.957031 516.777344 525.863281 515.613281 525.863281 L 508.300781 525.863281 L 508.300781 529.882812 L 515.097656 529.882812 C 516.261719 529.882812 517.167969 530.789062 517.167969 531.957031 C 517.167969 533.121094 516.261719 534.03125 515.097656 534.03125 L 508.300781 534.03125 L 508.300781 538.4375 L 516.132812 538.4375 C 517.296875 538.4375 518.203125 539.34375 518.203125 540.511719 L 518.203125 540.769531 C 518.203125 541.9375 517.296875 542.84375 516.132812 542.84375 L 505.390625 542.84375 C 504.289062 542.84375 503.382812 541.9375 503.382812 540.835938 Z M 503.382812 540.835938 " fill-opacity="1" fill-rule="nonzero"/></svg>