<?xml version="1.0" standalone="no"?>
<!DOCTYPE svg PUBLIC "-//W3C//DTD SVG 20010904//EN"
 "http://www.w3.org/TR/2001/REC-SVG-20010904/DTD/svg10.dtd">
<svg version="1.0" xmlns="http://www.w3.org/2000/svg"
 width="1014.000000pt" height="633.000000pt" viewBox="0 0 1014.000000 633.000000"
 preserveAspectRatio="xMidYMid meet">

<g transform="translate(0.000000,633.000000) scale(0.100000,-0.100000)"
fill="#000000" stroke="none">
<path d="M4865 6223 c-252 -31 -409 -68 -587 -137 -373 -144 -721 -399 -956
-700 l-22 -29 -118 32 c-64 18 -137 39 -162 46 -207 64 -373 109 -445 121 -16
3 -82 15 -145 27 -173 31 -401 30 -533 -3 -84 -20 -103 -29 -128 -57 -16 -19
-29 -41 -29 -51 0 -13 3 -12 16 6 30 43 104 13 104 -42 0 -26 -75 -99 -94 -93
-6 2 -12 18 -14 35 -2 18 -8 32 -14 32 -7 0 -8 -23 -4 -67 9 -92 50 -173 136
-269 78 -89 161 -217 195 -302 66 -167 180 -361 244 -415 56 -46 138 -87 211
-103 65 -15 75 -21 99 -55 18 -27 40 -44 74 -56 45 -17 59 -35 37 -48 -16 -10
-11 -88 8 -116 9 -14 34 -51 54 -82 21 -31 41 -58 46 -61 4 -2 9 -28 10 -58 5
-126 65 -385 126 -553 72 -195 238 -492 343 -615 l30 -34 34 26 c19 15 65 56
104 91 l69 64 -36 44 c-64 79 -148 216 -208 341 -55 114 -129 318 -144 397 -5
29 -4 32 12 26 86 -38 196 -69 301 -86 190 -30 253 -54 371 -138 93 -66 94
-67 208 -86 116 -19 213 -19 276 0 66 20 85 34 131 94 37 48 63 67 52 38 -3
-7 1 -21 9 -32 20 -28 17 -38 -10 -31 -30 7 -46 -22 -22 -40 24 -17 19 -27 -9
-20 -29 7 -46 -17 -26 -37 17 -17 13 -25 -11 -29 -20 -3 -23 -10 -26 -52 -3
-39 1 -53 19 -72 27 -29 37 -24 31 15 -6 42 13 93 68 186 26 44 55 107 65 140
9 32 23 68 30 78 12 17 13 9 8 -56 -4 -56 -1 -89 11 -127 14 -41 16 -71 10
-144 -6 -84 -4 -96 16 -136 19 -36 23 -60 21 -121 -1 -69 2 -82 33 -141 32
-59 34 -68 25 -105 -10 -37 -7 -46 30 -119 23 -43 41 -92 41 -107 0 -41 22
-86 67 -137 22 -25 42 -53 46 -63 4 -10 36 -31 71 -47 l63 -29 67 31 c36 18
66 37 66 44 0 7 6 19 13 26 56 60 90 113 94 151 3 23 23 79 44 125 41 86 46
111 29 142 -8 15 -3 34 25 85 31 59 35 75 35 140 0 56 6 86 26 131 25 56 25
60 13 139 -10 73 -10 87 6 129 14 36 17 64 12 129 -6 97 6 91 42 -21 12 -37
32 -85 46 -107 66 -109 85 -154 85 -206 0 -51 0 -51 22 -37 45 30 44 130 0
136 -24 4 -28 12 -11 29 18 18 3 46 -21 38 -21 -7 -27 4 -10 21 5 5 7 19 3 32
-4 17 -8 20 -19 11 -21 -17 -38 0 -19 21 8 9 13 24 9 34 -12 32 12 15 60 -43
47 -57 60 -66 135 -90 49 -16 158 -14 270 5 109 19 112 20 201 84 118 86 186
110 410 145 52 8 137 31 189 50 51 19 95 35 97 35 1 0 -6 -33 -17 -72 -64
-236 -183 -482 -324 -674 l-53 -71 98 -87 c54 -47 102 -86 107 -86 10 0 112
136 166 222 167 264 285 593 324 902 l16 131 59 82 c50 70 58 88 58 127 0 25
-4 48 -10 51 -22 14 -8 31 38 47 35 13 55 28 73 55 17 26 35 40 59 46 214 51
301 128 430 379 33 64 60 122 60 129 0 45 105 211 210 332 88 101 117 162 126
262 4 56 3 77 -4 70 -6 -5 -12 -23 -14 -39 -4 -41 -18 -42 -66 0 -47 40 -54
72 -22 104 27 27 65 26 84 -2 21 -30 20 -4 -1 32 -21 36 -38 44 -143 72 -111
29 -368 32 -500 5 -47 -10 -112 -21 -145 -27 -98 -15 -378 -90 -525 -140 -14
-5 -70 -21 -124 -36 l-99 -26 -36 43 c-67 83 -256 271 -341 339 -331 264 -707
424 -1121 475 -111 14 -410 19 -494 8z m550 -293 c334 -59 643 -200 905 -414
74 -60 260 -243 260 -256 0 -3 -51 -22 -112 -42 -187 -60 -469 -173 -613 -246
-114 -58 -292 -166 -326 -198 -14 -13 -29 -24 -35 -23 -20 2 -114 119 -114
144 0 13 -7 43 -16 65 -13 33 -27 46 -67 67 -48 24 -50 26 -31 40 10 7 30 16
44 19 235 51 355 104 492 216 114 93 70 88 -66 -7 -99 -69 -89 -65 -426 -169
l-75 -24 -38 34 c-43 39 -33 36 -117 39 -72 2 -107 -11 -138 -50 l-20 -25 -79
25 c-43 13 -129 40 -191 60 -129 40 -154 52 -237 110 -138 98 -180 99 -60 2
101 -82 250 -155 380 -186 182 -44 190 -49 119 -85 -57 -29 -64 -40 -88 -146
-5 -23 -97 -130 -111 -130 -4 0 -26 17 -50 38 -23 20 -55 44 -71 52 -16 8 -51
28 -79 46 -79 50 -220 122 -288 148 -34 13 -118 47 -187 75 -69 29 -187 73
-262 98 -76 26 -138 51 -138 56 0 19 225 233 313 299 295 218 618 346 982 388
126 14 402 4 540 -20z m-3306 -399 c-33 -32 -39 -45 -39 -80 0 -40 0 -40 -32
-34 -40 7 -49 20 -41 53 11 48 75 97 129 99 19 1 17 -4 -17 -38z m5964 24 c63
-26 115 -117 75 -129 -53 -17 -69 -16 -68 1 5 45 -2 66 -36 103 -39 43 -31 50
29 25z m-5856 -23 c-31 -32 -35 -69 -10 -88 26 -18 13 -25 -56 -31 -63 -6 -67
-3 -61 37 4 33 98 110 133 110 19 0 19 -2 -6 -28z m5775 -1 c48 -31 84 -82 74
-107 -6 -15 -52 -18 -104 -8 l-31 6 21 28 c17 23 18 31 8 51 -7 13 -22 32 -34
41 -21 17 -21 18 0 18 11 0 41 -13 66 -29z m-5592 10 c0 -5 -12 -11 -28 -14
-45 -9 -82 -44 -82 -78 0 -34 -2 -35 -41 -12 -34 20 -37 43 -10 67 34 31 161
60 161 37z m5439 -3 c32 -7 60 -22 78 -40 l27 -29 -29 -24 c-30 -25 -62 -34
-50 -14 15 23 -6 59 -45 79 -21 11 -46 20 -55 20 -9 0 -13 5 -10 10 8 13 22
13 84 -2z m-5273 -42 c18 -14 18 -15 -9 -25 -16 -6 -30 -11 -33 -11 -2 0 -22
-11 -44 -25 -47 -30 -127 -35 -137 -9 -8 22 32 61 76 72 55 15 125 14 147 -2z
m5197 -11 c41 -19 63 -54 43 -67 -27 -18 -96 -8 -144 22 -27 17 -54 30 -60 30
-18 0 -25 22 -11 32 22 14 130 4 172 -17z m-5030 -36 c21 -5 54 -24 73 -41 32
-28 34 -33 20 -44 -15 -10 -13 -13 11 -19 61 -15 69 -47 24 -92 -22 -22 -51
-35 -122 -52 -124 -31 -148 -40 -129 -50 8 -5 37 -12 63 -15 27 -4 50 -13 53
-21 8 -19 -23 -63 -49 -71 -26 -7 -190 -75 -197 -81 -2 -2 1 -8 8 -12 16 -10
5 -19 -55 -50 -41 -21 -113 -29 -113 -13 0 5 21 18 48 29 42 19 44 22 25 28
-12 4 -25 16 -28 26 -4 10 -17 22 -31 25 -43 11 -83 -29 -108 -108 -4 -15 -13
-17 -49 -12 -33 5 -51 2 -71 -11 -15 -10 -30 -14 -34 -11 -10 11 46 56 69 56
32 0 59 19 59 40 0 28 -23 25 -74 -12 -38 -26 -48 -29 -61 -18 -8 7 -15 21
-15 32 0 20 54 78 72 78 5 0 28 8 51 19 44 19 140 56 169 65 15 4 16 10 7 33
-6 15 -22 40 -36 55 -30 32 -27 60 13 107 26 32 64 40 93 22 12 -8 8 -17 -22
-50 -25 -27 -37 -50 -36 -69 0 -25 1 -25 9 -6 19 47 165 137 248 152 35 7 34
7 -23 12 -67 6 -83 25 -45 57 37 33 113 42 183 22z m4863 -13 c17 -12 24 -25
22 -39 -3 -19 -11 -23 -63 -28 -33 -3 -50 -6 -37 -7 75 -6 241 -104 262 -156
8 -19 9 -18 9 9 1 21 -10 40 -36 67 -31 32 -35 40 -23 48 31 20 67 11 99 -25
38 -43 39 -74 6 -105 -14 -13 -25 -31 -25 -41 0 -10 -5 -21 -10 -24 -17 -11
-2 -22 36 -30 21 -3 65 -20 99 -36 34 -16 66 -29 72 -29 5 0 29 -14 51 -30 45
-32 55 -67 27 -90 -13 -11 -23 -8 -61 19 -25 18 -51 30 -59 27 -35 -13 -3 -46
58 -61 38 -10 68 -37 55 -50 -3 -4 -18 1 -32 10 -17 11 -40 16 -73 13 -46 -3
-47 -3 -54 32 -8 39 -59 90 -89 90 -11 0 -27 -11 -36 -25 -9 -13 -25 -27 -36
-31 -18 -5 -14 -9 26 -26 25 -11 46 -24 46 -29 0 -18 -72 -8 -120 16 -48 24
-71 45 -51 45 33 0 -1 21 -86 55 -96 37 -159 83 -150 108 2 7 29 17 61 23 31
7 60 15 63 18 8 8 -39 25 -117 42 -83 19 -128 42 -154 77 -25 34 -15 55 35 73
19 7 28 13 22 13 -40 3 12 64 74 87 48 18 154 12 189 -10z m-5575 -76 c28 -16
24 -55 -8 -77 -49 -33 -82 -43 -144 -43 -53 0 -61 3 -71 24 -13 31 -6 50 27
72 47 31 157 44 196 24z m6262 -4 c68 -25 97 -72 65 -104 -18 -18 -123 -15
-161 4 -70 36 -97 81 -59 103 24 15 110 13 155 -3z m-5988 -31 c-39 -27 -55
-49 -55 -72 0 -25 -1 -26 -24 -17 -17 6 -21 41 -8 60 15 21 57 44 82 44 24 -1
24 -1 5 -15z m871 -6 c21 -17 18 -43 -3 -34 -10 4 -39 13 -65 21 -65 20 -63
39 3 31 28 -4 57 -12 65 -18z m3934 12 c0 -10 -122 -52 -130 -45 -9 10 17 39
41 45 36 10 89 10 89 0z m821 -12 c21 -14 29 -29 29 -50 0 -16 -2 -29 -4 -29
-2 0 -11 -3 -20 -6 -12 -5 -16 0 -16 18 0 28 -14 48 -50 72 l-24 16 28 0 c15
0 41 -9 57 -21z m-4955 -3 c16 -13 17 -18 6 -36 -7 -11 -10 -25 -7 -30 12 -20
-38 -50 -83 -50 l-45 0 37 36 c32 31 37 42 32 65 -5 25 -2 29 17 29 13 0 32
-6 43 -14z m4279 -6 c-8 -24 9 -58 44 -87 l26 -22 -45 0 c-54 0 -80 17 -80 52
0 14 -4 29 -10 32 -25 16 8 43 53 44 14 1 17 -4 12 -19z m-3829 -25 c18 -14
17 -14 -13 -15 -17 0 -33 -5 -35 -11 -2 -7 -15 -8 -36 -2 -37 9 -42 29 -6 26
13 -1 24 2 24 8 0 14 44 11 66 -6z m3384 6 c0 -6 11 -9 24 -8 34 3 33 -16 -1
-27 -19 -6 -28 -5 -31 3 -2 6 -17 11 -33 11 -32 0 -40 16 -11 23 31 8 52 7 52
-2z m-3682 -44 c2 -10 -3 -17 -13 -17 -8 0 -18 -7 -21 -15 -4 -11 -21 -15 -58
-15 -47 1 -49 2 -32 15 11 8 33 15 49 15 21 0 30 6 34 20 7 25 36 23 41 -3z
m3957 3 c4 -14 15 -20 35 -20 16 0 35 -3 44 -6 30 -12 16 -24 -28 -24 -48 0
-97 32 -89 58 7 19 31 14 38 -8z m-3750 -12 c25 -12 45 -26 45 -30 0 -4 -18
-8 -41 -8 -32 0 -42 4 -46 20 -3 11 -9 20 -14 20 -5 0 -9 5 -9 10 0 15 15 12
65 -12z m3565 17 c0 -3 -7 -17 -16 -30 -13 -20 -25 -25 -56 -25 -48 0 -42 14
16 41 43 19 56 23 56 14z m-4679 -40 c23 -8 26 -47 4 -65 -13 -11 -18 -10 -31
8 -8 12 -22 22 -31 22 -14 0 -14 -3 3 -21 13 -15 16 -24 8 -36 -16 -25 -34
-27 -34 -4 0 28 -6 27 -44 -13 -19 -18 -50 -39 -70 -46 -31 -10 -42 -9 -74 7
-78 38 -42 100 79 132 64 18 159 25 190 16z m5932 -19 c95 -29 130 -67 97
-109 -41 -52 -119 -40 -177 27 l-33 36 -6 -25 c-7 -28 -22 -29 -38 -1 -9 14
-6 21 13 37 17 14 19 19 7 19 -8 0 -24 -10 -35 -22 -17 -17 -23 -19 -36 -8
-18 15 -19 41 -2 59 15 16 140 8 210 -13z m-5843 -41 c0 -13 -7 -26 -16 -29
-23 -9 -24 -6 -17 37 4 30 8 35 19 26 8 -6 14 -22 14 -34z m5594 -34 c-8 -9
-39 15 -42 33 -2 9 2 24 9 32 10 13 14 9 25 -23 7 -20 11 -39 8 -42z m-4976
17 c4 -35 -38 -58 -104 -58 -47 0 -47 0 -28 21 15 16 16 24 6 39 -7 11 -12 22
-12 24 0 8 53 11 95 6 34 -4 40 -9 43 -32z m402 32 c40 0 77 -21 66 -38 -11
-18 -33 -14 -56 10 -17 18 -20 19 -20 5 0 -21 -22 -22 -60 -2 -41 21 -39 39 3
31 17 -4 48 -7 67 -6z m3610 0 c0 -14 -60 -42 -77 -36 -8 3 -11 11 -8 17 14
22 85 39 85 19z m440 -9 c0 -4 -5 -12 -11 -18 -9 -9 -8 -18 5 -37 l16 -26 -44
0 c-77 0 -126 39 -96 75 17 21 130 26 130 6z m-4262 -14 c25 -17 13 -37 -23
-37 -39 0 -105 28 -105 45 0 12 106 5 128 -8z m3720 3 c-20 -32 -68 -38 -68
-9 0 11 36 27 63 28 15 1 15 -2 5 -19z m342 7 c0 -7 -16 -21 -35 -30 -45 -21
-105 -23 -105 -3 0 22 19 30 80 37 30 3 56 7 58 8 1 0 2 -5 2 -12z m-3820 -62
c0 -9 -9 -15 -22 -15 -13 -1 -41 -7 -62 -15 -55 -19 -67 -7 -20 21 45 27 104
32 104 9z m110 6 c14 -4 20 -10 14 -13 -6 -4 -28 -1 -50 7 -30 11 -33 14 -14
14 14 -1 36 -4 50 -8z m3284 0 c-17 -4 -36 -11 -42 -15 -7 -4 -18 -4 -24 0
-16 10 23 22 67 22 l30 0 -31 -7z m161 -14 c19 -13 33 -26 30 -29 -4 -4 -121
21 -134 29 -1 1 0 6 4 12 11 19 65 12 100 -12z m-3814 -7 c36 -20 9 -30 -82
-30 -95 0 -112 11 -56 36 34 15 103 12 138 -6z m535 4 c33 -16 45 -34 24 -34
-18 0 -70 30 -70 40 0 14 6 13 46 -6z m340 -13 c49 -22 61 -47 17 -37 -25 6
-26 5 -10 -7 27 -22 21 -38 -10 -31 -47 11 -107 40 -123 58 -13 16 -12 20 5
33 23 17 57 12 121 -16z m2335 19 c28 -16 23 -35 -13 -57 -34 -20 -119 -45
-127 -38 -2 3 4 14 15 26 18 20 18 20 -10 13 -50 -12 -25 19 35 43 62 26 73
27 100 13z m269 0 c0 -10 -52 -40 -70 -40 -21 0 -9 17 23 33 38 19 47 20 47 7z
m630 -5 c52 -27 35 -36 -62 -33 -51 2 -93 7 -93 13 0 10 67 33 103 34 13 1 36
-6 52 -14z m-2192 -18 c11 -12 24 -40 27 -62 5 -34 3 -42 -15 -53 -24 -15 -40
-8 -40 17 0 27 -26 44 -60 39 l-30 -5 22 26 c30 35 59 61 67 61 4 0 17 -10 29
-23z m221 -22 l42 -45 -29 6 c-40 8 -72 -11 -72 -41 0 -30 -20 -32 -44 -6 -13
14 -16 28 -11 50 8 35 41 81 59 81 7 0 32 -20 55 -45z m-2435 8 c3 -4 -15 -15
-41 -25 -57 -21 -56 -21 -51 -6 2 6 20 17 39 24 42 15 44 16 53 7z m4633 -14
c28 -10 44 -35 17 -26 -58 18 -93 34 -87 40 6 7 23 3 70 -14z m-4164 -6 c-13
-2 -35 -2 -50 0 -16 2 -5 4 22 4 28 0 40 -2 28 -4z m368 -3 c5 0 9 -4 9 -10 0
-16 -26 -12 -41 7 -12 15 -12 16 4 10 10 -4 23 -7 28 -7z m2925 -5 c-22 -17
-46 -20 -46 -6 0 10 22 18 50 20 11 0 10 -4 -4 -14z m392 8 c-16 -2 -40 -2
-55 0 -16 2 -3 4 27 4 30 0 43 -2 28 -4z m-3920 -30 c20 -10 36 -22 35 -27 -3
-15 -116 -56 -155 -56 -29 0 -41 6 -54 25 -9 14 -21 25 -27 25 -5 0 -3 -8 6
-18 10 -10 17 -24 17 -31 0 -6 7 -14 15 -17 27 -11 16 -22 -31 -29 -35 -5 -50
-3 -63 9 -10 9 -23 16 -29 16 -7 0 -12 9 -12 21 0 14 10 24 30 32 32 12 40 27
15 27 -28 0 -15 27 18 38 46 16 191 7 235 -15z m456 2 c28 -25 34 -63 14 -83
-22 -22 -83 -14 -112 14 -28 29 -32 45 -16 75 16 29 80 26 114 -6z m3294 13
c38 -38 -12 -108 -76 -108 -68 0 -85 49 -31 94 33 28 86 35 107 14z m573 0
c38 -11 55 -38 24 -38 -24 0 -17 -17 10 -24 13 -3 29 -15 35 -25 15 -29 -49
-65 -102 -56 -21 4 -38 9 -38 11 0 7 24 48 39 67 8 9 10 17 4 17 -6 0 -18 -11
-27 -25 -13 -19 -25 -25 -53 -25 -44 0 -153 41 -153 57 0 39 175 67 261 41z
m-4701 -34 c0 -8 9 -14 21 -14 20 0 19 -3 -10 -35 -32 -37 -39 -59 -21 -70 19
-12 10 -25 -18 -25 -37 0 -67 22 -59 44 4 9 22 26 42 37 38 23 44 36 20 45
-18 7 -20 31 -2 37 16 6 27 -1 27 -19z m1230 7 c43 -23 51 -48 17 -56 -25 -7
-147 49 -147 67 0 16 95 8 130 -11z m2520 9 c0 -18 -121 -72 -146 -66 -35 9
-29 29 14 54 38 22 132 31 132 12z m1138 -2 c17 -17 15 -25 -8 -31 -25 -6 -26
-25 -2 -34 25 -9 62 -44 62 -59 0 -16 -32 -34 -60 -34 -19 0 -21 4 -15 29 5
22 0 35 -20 59 -30 36 -30 38 -5 45 11 3 20 12 20 21 0 19 11 21 28 4z m-4230
-18 c58 -35 43 -47 -55 -42 -99 5 -115 12 -88 42 24 27 98 27 143 0z m872 -20
c14 -27 12 -57 -4 -63 -8 -3 -16 -16 -18 -29 -4 -27 -29 -34 -69 -18 -38 16
-42 60 -5 60 31 0 50 24 42 53 -3 13 -3 27 0 30 10 9 42 -11 54 -33z m1845 3
c-7 -31 10 -53 41 -53 19 0 24 -5 24 -25 0 -29 -29 -48 -68 -43 -21 2 -28 9
-30 31 -2 15 -9 27 -18 27 -18 0 -18 23 1 60 24 46 62 49 50 3z m956 27 c10
-6 19 -20 19 -30 0 -18 -7 -20 -72 -20 -40 0 -83 -3 -95 -6 -36 -10 -29 23 10
46 35 22 106 27 138 10z m-2128 -54 c-12 -36 -13 -53 -5 -66 8 -13 8 -20 0
-28 -15 -15 7 -42 33 -42 11 0 19 -4 19 -9 0 -17 -24 -18 -47 -3 -20 13 -26
12 -48 -2 -36 -23 -88 -78 -104 -109 -13 -24 -12 -29 4 -47 14 -15 16 -27 10
-57 -4 -21 -7 -67 -6 -103 1 -43 -3 -72 -12 -84 -13 -17 -15 -10 -25 71 -25
192 -12 245 84 328 62 55 64 58 64 104 0 34 6 56 21 75 12 15 23 26 25 24 1
-2 -4 -25 -13 -52z m477 -42 c0 -51 1 -53 61 -104 33 -29 69 -71 81 -94 19
-37 20 -52 15 -169 -4 -70 -10 -135 -15 -143 -16 -28 -35 39 -27 91 4 27 2 60
-5 81 -10 30 -9 41 6 69 17 32 17 33 -5 69 -13 20 -43 53 -67 73 -44 36 -46
36 -73 20 -16 -9 -32 -12 -40 -7 -10 6 -6 11 15 21 24 12 28 21 30 63 2 27 -3
64 -11 83 -20 48 -19 50 10 23 20 -19 25 -33 25 -76z m-1711 -11 c6 -13 9 -34
5 -48 -4 -17 -1 -32 10 -44 22 -24 6 -34 -30 -21 -33 13 -104 68 -104 81 0 5
11 14 25 19 14 5 25 13 25 17 0 5 10 24 22 43 l22 35 6 -30 c4 -16 12 -40 19
-52z m2961 50 c0 -9 17 -31 37 -51 l37 -35 -34 -29 c-47 -40 -89 -61 -107 -54
-12 5 -12 8 2 23 11 11 15 26 11 44 -3 16 1 40 9 56 8 15 15 35 15 44 0 9 3
19 6 22 10 10 24 -2 24 -20z m-3475 -18 c0 -5 -19 -11 -42 -13 -40 -3 -53 5
-36 22 11 10 78 3 78 -9z m662 -5 c47 -28 66 -61 54 -94 -6 -14 -15 -26 -21
-26 -21 0 -68 30 -89 56 -26 33 -27 60 -3 73 23 14 22 14 59 -9z m2483 -1 c0
-10 -71 -48 -112 -60 -34 -9 -36 0 -5 29 42 40 117 60 117 31z m214 -8 c10
-15 -39 -75 -77 -96 -33 -17 -39 -18 -47 -5 -26 41 2 96 60 118 24 9 53 2 64
-17z m664 12 c2 -9 -9 -13 -37 -13 -30 0 -41 4 -41 16 0 11 9 14 37 12 20 -2
38 -9 41 -15z m-3155 -4 c27 -14 67 -50 67 -60 0 -4 -13 -4 -30 1 -38 11 -110
51 -110 62 0 12 48 10 73 -3z m302 -7 c6 -4 11 -31 12 -59 2 -52 1 -53 -27
-53 -19 0 -33 -7 -40 -19 -7 -14 -23 -21 -52 -23 -55 -4 -73 -31 -39 -59 27
-22 14 -25 -32 -5 -31 13 -87 68 -87 86 0 5 7 16 17 25 13 13 27 16 68 10 80
-10 103 0 107 43 2 27 9 40 28 49 29 15 32 15 45 5z m1663 -14 c6 -6 12 -25
12 -43 0 -29 4 -34 30 -40 16 -3 49 -3 73 0 51 8 87 -6 87 -34 0 -28 -57 -78
-109 -96 l-46 -15 30 24 c40 33 26 60 -33 64 -30 2 -43 8 -47 23 -5 14 -15 19
-41 19 -36 0 -45 18 -25 49 6 9 6 22 -1 34 -18 35 31 45 70 15z m-3224 -14
c24 -9 19 -24 -8 -24 -26 0 -40 12 -29 24 8 8 17 8 37 0z m4766 -4 c0 -15 -27
-23 -47 -16 -15 6 -15 8 -3 16 20 13 50 12 50 0z m-5038 -22 c21 -6 37 -16 35
-22 -2 -6 -37 -14 -78 -18 -41 -4 -86 -11 -101 -17 -56 -21 -46 30 10 53 45
18 82 20 134 4z m1971 -2 c31 -13 77 -79 64 -92 -3 -4 -20 5 -36 19 -17 14
-44 28 -60 32 -29 6 -46 28 -35 46 7 13 29 11 67 -5z m1395 -8 c-2 -14 -15
-25 -43 -35 -21 -7 -49 -23 -62 -35 -29 -27 -39 -18 -20 19 25 47 59 71 105
72 18 1 23 -4 20 -21z m2031 11 c30 -11 59 -45 47 -56 -3 -3 -31 -1 -62 6 -32
6 -77 11 -100 11 -55 0 -65 16 -22 35 40 17 94 19 137 4z m-4579 -29 c27 -15
-15 -23 -128 -24 -111 -1 -182 8 -182 24 0 5 17 11 38 13 53 6 254 -4 272 -13z
m718 14 c38 -11 24 -24 -25 -24 -43 0 -45 -1 -27 -15 18 -14 18 -14 -5 -15
-20 0 -21 -2 -11 -15 17 -21 -13 -31 -46 -16 -20 9 -25 17 -22 38 5 43 68 65
136 47z m2310 -10 c41 -29 20 -84 -34 -84 -11 0 -15 6 -11 20 4 15 0 20 -16
20 -22 1 -22 1 -3 15 18 14 16 15 -30 15 -45 1 -48 2 -30 15 26 20 96 19 124
-1z m911 0 c12 -12 -27 -23 -103 -29 -90 -7 -201 5 -198 20 4 20 282 28 301 9z
m-4246 -20 c15 -12 27 -24 27 -27 0 -2 -34 -4 -75 -3 -67 1 -74 -1 -69 -16 3
-10 1 -18 -4 -18 -15 0 -30 22 -34 50 -3 22 1 26 37 30 69 9 90 6 118 -16z
m773 -9 c19 -19 31 -35 27 -34 -20 2 -68 37 -71 52 -5 25 5 21 44 -18z m2744
20 c0 -14 -54 -55 -73 -55 -9 0 55 68 66 69 4 1 7 -6 7 -14z m884 -5 c10 -10
-14 -62 -33 -68 -9 -3 -11 1 -7 14 5 18 0 19 -71 18 l-77 -1 32 28 c29 26 37
28 89 23 32 -3 62 -9 67 -14z m-4661 -21 c-1 -13 -3 -35 -5 -48 -3 -21 4 -27
40 -40 24 -9 45 -20 45 -26 3 -14 -63 -18 -105 -7 -31 8 -33 11 -30 49 1 29
-3 45 -18 58 -29 26 -25 33 18 38 52 5 57 3 55 -24z m4857 13 c0 -3 -10 -16
-21 -28 -18 -19 -20 -27 -11 -53 15 -42 -6 -56 -79 -56 -68 0 -78 14 -22 33
53 18 57 25 42 67 -10 27 -11 38 -2 43 14 8 93 3 93 -6z m-5320 -10 c0 -22
-22 -43 -66 -65 -28 -14 -31 -14 -42 4 -18 29 -15 43 16 61 38 24 92 24 92 0z
m2942 -2 c25 -11 51 -27 59 -36 10 -12 24 -15 55 -10 29 4 46 1 53 -8 8 -10 2
-15 -29 -25 -38 -11 -42 -10 -90 23 -96 66 -189 65 -291 -3 -32 -22 -61 -36
-64 -31 -3 5 -19 11 -36 15 -24 6 -28 9 -18 21 8 10 23 12 50 8 28 -5 44 -2
57 8 66 59 173 74 254 38z m2838 5 c32 -16 37 -34 20 -66 -10 -18 -12 -18 -43
-3 -45 23 -67 44 -67 66 0 23 48 25 90 3z m-5440 -15 c40 -20 53 -51 29 -66
-6 -4 -9 -19 -5 -38 4 -24 3 -27 -5 -13 -12 21 -29 22 -29 2 0 -25 -31 -17
-76 20 -23 19 -47 35 -53 35 -15 0 -22 16 -15 34 3 9 24 18 50 22 24 3 47 10
50 15 7 12 9 12 54 -11z m5064 11 c3 -5 26 -12 51 -15 56 -9 88 -56 38 -56 -8
0 -34 -16 -57 -35 -50 -41 -76 -45 -76 -12 l0 22 -19 -23 -18 -24 0 34 c0 18
-3 43 -8 55 -6 18 -1 25 32 42 44 23 50 24 57 12z m-3226 -57 c32 -13 41 -44
11 -35 -8 2 -42 10 -77 16 -70 14 -83 22 -62 36 17 11 81 3 128 -17z m1461 17
c24 -15 3 -28 -56 -36 -32 -4 -66 -11 -75 -16 -9 -5 -19 -5 -22 0 -18 29 116
75 153 52z m-2044 -13 c27 -12 33 -28 11 -28 -24 0 -66 19 -66 30 0 13 23 13
55 -2z m2555 -2 c0 -14 -30 -26 -65 -26 -19 1 -19 2 4 20 27 23 61 26 61 6z
m-3132 -27 c4 -24 -49 -33 -65 -11 -21 26 -15 33 24 30 25 -2 39 -8 41 -19z
m3732 7 c0 -22 -23 -35 -52 -29 -27 5 -36 22 -21 36 13 13 73 7 73 -7z m-3832
-8 c16 -16 15 -28 -3 -28 -8 0 -19 9 -25 20 -8 15 -8 20 3 20 7 0 18 -5 25
-12z m3885 -8 c-3 -11 -14 -20 -24 -20 -24 0 -25 16 -1 29 25 15 31 13 25 -9z
m-3959 -11 c15 -14 3 -19 -49 -21 -55 -3 -71 14 -28 30 29 10 61 7 77 -9z
m4081 9 c32 -14 33 -38 1 -38 -39 0 -86 12 -86 22 0 8 34 26 52 27 4 1 19 -4
33 -11z m-4724 -8 c10 -6 19 -19 19 -30 0 -21 -40 -33 -115 -34 -36 -1 -40 2
-40 23 0 19 8 27 35 37 44 16 76 17 101 4z m1877 -9 c46 -10 59 -17 49 -27 -8
-8 -108 4 -126 15 -18 12 -4 33 17 27 10 -3 36 -10 60 -15z m1620 -7 c-9 -9
-79 -23 -112 -24 -45 0 -18 20 46 35 47 11 82 6 66 -11z m1883 16 c48 -14 66
-34 48 -56 -10 -13 -24 -15 -64 -9 -80 10 -95 16 -95 36 0 35 45 47 111 29z
m-2584 -32 c60 -39 97 -120 101 -219 3 -62 0 -83 -17 -117 -26 -50 -52 -66
-108 -63 -35 1 -43 -2 -43 -17 0 -10 5 -23 12 -30 14 -14 3 -28 -26 -34 -11
-1 -21 -9 -24 -15 -2 -9 11 -13 48 -13 61 0 88 12 100 46 12 31 34 40 66 25
21 -9 23 -14 14 -32 -12 -22 -82 -55 -140 -68 -28 -5 -36 -13 -44 -39 l-9 -32
-78 0 -79 0 -14 34 c-12 28 -21 35 -53 41 -89 15 -160 72 -121 96 29 19 54 9
71 -25 17 -36 17 -36 125 -51 47 -6 58 9 17 25 -23 9 -25 14 -19 48 8 52 -11
69 -60 51 -45 -16 -75 -2 -105 51 -53 96 -1 251 112 329 54 37 67 40 158 38
63 -2 82 -6 116 -29z m-2372 -30 c28 -13 30 -19 13 -37 -11 -10 -9 -16 10 -31
27 -22 14 -34 -22 -20 -15 5 -26 17 -26 28 0 28 -20 42 -64 43 l-41 1 30 13
c37 17 67 18 100 3z m4545 -3 c25 -14 25 -14 -15 -15 -46 0 -65 -14 -65 -46 0
-16 -7 -23 -27 -27 -38 -7 -49 2 -24 20 16 10 19 21 15 39 -5 19 -1 26 17 33
34 14 70 12 99 -4z m-3517 -9 c41 -10 19 -32 -44 -45 -63 -14 -69 -14 -69 1 0
18 52 58 70 53 8 -2 28 -6 43 -9z m444 -1 c7 -19 5 -22 -29 -30 -21 -5 -29 -3
-34 10 -4 10 -1 21 7 26 22 14 49 11 56 -6z m1552 6 c8 -5 11 -16 7 -26 -5
-13 -13 -15 -34 -10 -34 8 -36 11 -29 30 7 17 34 20 56 6z m478 -17 c47 -36
43 -48 -14 -39 -93 14 -122 42 -57 56 16 4 31 7 33 8 2 0 19 -10 38 -25z
m-3077 11 c0 -2 -17 -13 -38 -24 -21 -11 -56 -38 -79 -61 l-40 -42 -36 16
c-64 26 -43 60 58 95 54 18 135 28 135 16z m325 -15 l-60 -19 72 6 c39 3 76 2
82 -1 20 -12 -1 -35 -37 -41 -21 -4 -58 -11 -83 -17 -26 -6 -54 -8 -64 -4 -17
6 -16 8 5 31 26 28 21 32 -13 11 -23 -14 -107 -11 -107 4 0 21 115 47 210 48
l55 0 -60 -18z m3103 -6 c28 -9 52 -20 52 -25 0 -14 -94 -16 -117 -2 -32 19
-36 16 -13 -7 44 -44 23 -48 -117 -20 -53 10 -63 16 -63 32 0 20 4 20 78 15
l77 -6 -55 20 -55 20 80 -5 c44 -3 104 -13 133 -22z m292 7 c103 -32 132 -78
63 -99 -36 -11 -38 -10 -76 28 -21 22 -56 49 -77 60 -22 11 -40 23 -40 25 0
12 73 3 130 -14z m-4570 0 c0 -5 -4 -11 -10 -13 -5 -1 16 -3 48 -4 74 0 197
-31 225 -56 20 -18 20 -19 2 -13 -68 24 -141 32 -130 15 3 -5 17 -10 30 -10
30 0 55 -10 55 -22 0 -5 -26 -6 -62 -3 -58 6 -61 5 -44 -9 11 -9 17 -18 15
-21 -11 -11 -157 -25 -194 -19 -51 8 -95 31 -95 48 0 33 193 76 247 55 36 -13
40 -11 14 7 -18 13 -36 15 -84 10 -38 -4 -65 -2 -73 5 -11 9 -27 5 -69 -16
-57 -27 -85 -28 -85 -1 0 20 10 25 83 41 74 16 127 18 127 6z m5454 -13 c41
-13 56 -32 37 -51 -8 -8 -26 -3 -71 18 -45 22 -63 26 -72 17 -7 -7 -33 -9 -73
-5 -49 4 -68 2 -86 -11 -26 -18 -22 -20 14 -7 30 12 182 -6 219 -25 65 -34 12
-77 -95 -78 -124 -1 -205 21 -147 39 41 13 18 22 -36 13 -31 -5 -59 -7 -61 -4
-12 12 11 26 43 26 19 0 34 5 34 10 0 14 -26 13 -90 -4 -30 -8 -56 -13 -58
-11 -22 21 208 80 273 70 38 -6 39 -5 20 10 -19 15 -16 16 45 10 36 -3 82 -11
104 -17z m-3314 -11 c0 -8 -9 -22 -20 -32 -13 -11 -18 -25 -14 -37 4 -15 0
-18 -25 -18 -36 0 -41 15 -9 23 l21 6 -24 21 c-24 20 -24 20 -5 35 25 19 76
20 76 2z m1090 -2 c10 -13 10 -19 -4 -33 -20 -23 -20 -32 -1 -32 22 0 18 -17
-4 -23 -23 -6 -31 0 -31 22 0 8 -9 25 -21 37 -12 12 -18 27 -14 33 9 16 61 13
75 -4z m1780 -5 c0 -5 -5 -10 -11 -10 -5 0 -7 5 -4 10 3 6 8 10 11 10 2 0 4
-4 4 -10z m-4015 -44 c18 -13 18 -14 -1 -23 -10 -6 -43 -19 -72 -29 -53 -18
-54 -18 -68 1 -14 18 -14 18 -14 -3 0 -12 -9 -26 -21 -33 -20 -10 -21 -9 -14
23 8 39 29 58 64 59 14 0 35 4 46 9 30 13 59 12 80 -4z m3392 3 c80 -19 90
-25 97 -60 3 -18 4 -34 2 -36 -8 -8 -37 30 -32 43 3 8 1 14 -4 14 -6 0 -10 -7
-10 -15 0 -17 -45 -21 -55 -5 -3 6 -13 10 -21 10 -8 0 -31 7 -52 16 -35 15
-36 16 -18 30 24 17 32 17 93 3z m-2197 -23 c0 -31 -14 -40 -30 -21 -15 18 -6
45 15 45 9 0 15 -9 15 -24z m953 12 c5 -16 -10 -48 -23 -48 -12 0 -23 37 -15
50 9 14 32 13 38 -2z m-2533 -13 c0 -11 -11 -15 -40 -15 -38 0 -49 8 -33 23 3
4 21 7 40 7 23 0 33 -5 33 -15z m4148 -2 c2 -9 -9 -13 -37 -13 -39 0 -50 8
-34 24 11 11 66 2 71 -11z m-3240 -17 c7 -36 -9 -67 -43 -83 -19 -9 -32 -20
-29 -24 3 -5 -4 -14 -16 -21 -11 -7 -20 -18 -20 -25 0 -7 -7 -13 -15 -13 -9 0
-12 -6 -9 -15 4 -9 0 -15 -10 -15 -9 0 -16 -3 -16 -8 0 -4 18 -6 40 -4 49 5
53 -13 5 -22 -48 -9 -44 -26 5 -26 29 0 40 -4 40 -15 0 -11 -11 -15 -43 -15
-45 0 -76 22 -91 64 -12 34 31 90 100 131 70 40 89 64 79 97 -5 15 -3 19 6 16
8 -3 16 -13 17 -22z m2279 4 c-7 -28 24 -63 88 -100 52 -30 95 -81 95 -113 0
-8 -12 -29 -26 -46 -22 -26 -33 -31 -70 -31 -32 0 -44 4 -44 15 0 11 11 15 40
15 47 0 53 16 10 25 -42 9 -38 28 5 23 19 -2 35 0 35 4 0 4 -4 8 -10 8 -5 0
-10 7 -10 15 0 8 -7 15 -15 15 -8 0 -12 6 -9 14 3 9 -3 17 -15 21 -12 3 -21
12 -21 19 0 7 -15 20 -34 28 -26 13 -35 25 -40 52 -7 38 -2 56 16 56 6 0 8 -9
5 -20z m-2173 -25 c6 -31 2 -41 -28 -77 -45 -52 -45 -79 -1 -124 19 -19 35
-44 35 -54 0 -17 -7 -20 -46 -20 -40 0 -45 2 -39 18 15 34 17 60 6 66 -6 4
-11 25 -11 46 0 31 7 45 32 69 27 25 32 37 31 71 -2 49 12 53 21 5z m2063 8
c-6 -34 9 -68 41 -89 24 -16 26 -34 10 -139 0 -5 2 -20 6 -32 7 -22 5 -23 -38
-23 -58 0 -61 21 -11 70 46 44 46 75 0 131 -23 27 -34 48 -29 58 3 9 9 24 11
34 8 27 16 20 10 -10z m-3197 -2 c0 -23 -38 -34 -86 -25 -41 8 -34 22 18 34
55 13 68 11 68 -9z m300 10 c0 -19 -46 -59 -75 -66 l-30 -7 28 29 c15 16 27
34 27 41 0 7 11 12 25 12 14 0 25 -4 25 -9z m3783 -33 c21 -29 24 -39 12 -34
-9 3 -20 6 -24 6 -14 0 -61 52 -55 61 12 20 41 6 67 -33z m297 31 c58 -12 64
-24 16 -33 -48 -9 -86 2 -86 25 0 22 3 22 70 8z m-4230 -29 c11 -11 20 -24 20
-28 0 -35 -115 -92 -184 -92 -54 0 -74 19 -58 55 13 29 58 54 127 71 69 17 72
17 95 -6z m1479 5 c26 -13 40 -37 55 -90 4 -15 -4 -31 -31 -57 -53 -50 -73
-58 -148 -58 -69 0 -78 11 -27 32 26 10 25 10 -27 27 -30 9 -56 22 -58 28 -7
20 40 42 130 60 85 16 87 17 57 29 -16 7 -30 17 -30 22 0 26 37 29 79 7z
m1131 0 c0 -8 -12 -21 -26 -28 -26 -13 -25 -14 37 -26 91 -18 126 -30 140 -47
17 -20 3 -32 -57 -49 l-49 -13 33 -12 c49 -18 38 -30 -28 -30 -72 0 -114 16
-154 58 -25 27 -28 36 -23 69 8 48 55 93 97 93 20 0 30 -5 30 -15z m1518 -5
c63 -14 115 -58 110 -92 -3 -21 -8 -23 -63 -22 -43 0 -76 8 -117 27 -51 24
-58 31 -58 57 0 17 7 33 18 39 18 10 22 10 110 -9z m-4412 -43 c53 -57 47 -70
-28 -62 -66 8 -88 18 -88 41 0 8 -9 22 -20 31 -33 29 -23 36 41 31 56 -4 65
-8 95 -41z m842 27 c15 -6 15 -7 -3 -14 -17 -7 -15 -9 11 -9 16 -1 39 -7 50
-15 18 -14 18 -15 -6 -20 -71 -14 -127 -16 -144 -3 -18 13 -18 15 5 30 13 10
30 17 37 17 8 0 12 6 9 14 -6 15 -2 15 41 0z m2936 1 c-4 -10 0 -15 13 -15 11
0 28 -9 37 -19 17 -18 17 -20 0 -29 -20 -11 -134 -4 -149 10 -14 13 13 27 55
29 19 1 27 3 18 6 -25 6 -22 21 5 26 12 2 23 5 24 6 1 0 0 -6 -3 -14z m956 5
c0 -5 -6 -13 -13 -17 -8 -4 -20 -21 -28 -38 -12 -26 -21 -31 -69 -38 -75 -10
-85 -5 -65 33 23 44 71 70 128 70 26 0 47 -4 47 -10z m-4896 -30 c37 -14 34
-46 -6 -66 -45 -24 -188 -33 -188 -12 0 26 56 65 115 79 43 10 51 10 79 -1z
m5031 -18 c41 -20 65 -42 65 -60 0 -12 -14 -14 -77 -10 -93 6 -146 28 -141 61
5 38 85 43 153 9z m-4285 10 c0 -5 -25 -19 -56 -31 -66 -28 -66 -37 0 -15 29
10 62 14 83 11 20 -4 44 -2 54 4 13 6 19 6 19 0 0 -6 -17 -13 -37 -16 -62 -11
-71 -19 -25 -23 43 -3 52 -18 21 -32 -38 -19 -120 -40 -152 -40 -49 0 -123 35
-130 62 -9 31 -1 38 46 38 24 1 61 11 87 25 45 24 90 32 90 17z m716 -41 c-21
-39 -20 -49 5 -105 21 -47 19 -66 -7 -66 -8 0 -14 10 -14 25 0 15 -7 40 -16
57 -18 34 -14 58 17 108 26 41 38 25 15 -19z m2014 -21 c11 -33 11 -45 1 -64
-7 -13 -16 -39 -20 -57 -4 -19 -11 -33 -16 -32 -17 4 -17 52 -1 75 20 28 20
65 1 98 -8 14 -14 31 -15 39 0 26 36 -17 50 -59z m771 45 c28 -15 60 -25 86
-25 23 0 44 -4 47 -8 24 -40 -65 -97 -137 -89 -44 5 -122 25 -146 36 -32 16
-23 31 18 31 49 0 55 17 9 22 l-33 4 29 9 c27 7 51 4 131 -19 11 -4 -4 5 -32
20 -29 14 -53 30 -53 35 0 17 37 9 81 -16z m-166 -15 c3 -5 -1 -10 -9 -10 -9
0 -16 5 -16 10 0 6 4 10 9 10 6 0 13 -4 16 -10z m-3061 -26 c22 -8 21 -51 -1
-58 -59 -16 -81 -16 -97 -1 -21 22 -20 31 6 49 23 16 64 21 92 10z m587 -29
l16 -35 -33 0 c-72 0 -109 35 -61 58 40 20 61 13 78 -23z m1764 23 c32 -14 32
-36 -1 -48 -50 -19 -110 -7 -74 15 6 3 10 15 10 26 0 22 26 25 65 7z m603 -4
c12 -8 22 -21 22 -29 0 -18 -36 -37 -58 -31 -9 2 -29 7 -44 10 -30 7 -37 33
-16 54 17 17 69 15 96 -4z m-3857 -24 c26 -15 24 -54 -3 -68 -52 -25 -68 -24
-115 7 -26 17 -51 31 -56 31 -18 0 0 11 40 25 46 17 107 19 134 5z m347 -2
c14 -14 16 -57 2 -78 -8 -13 -13 -12 -36 6 -36 26 -49 48 -41 68 7 19 57 22
75 4z m2355 -40 c-19 -32 -43 -48 -43 -28 0 18 54 84 58 71 2 -6 -5 -25 -15
-43z m1697 37 c10 -12 6 -21 -23 -50 -41 -41 -52 -43 -61 -12 -9 34 -7 44 10
61 20 20 58 21 74 1z m422 -5 l26 -12 -51 -35 c-51 -34 -53 -35 -91 -22 -53
19 -66 41 -41 70 17 18 28 21 75 16 30 -3 67 -10 82 -17z m-2833 -16 c22 -29
27 -54 11 -54 -10 0 -50 58 -50 73 0 15 19 6 39 -19z m-1031 -44 c5 -32 -13
-40 -95 -40 -76 0 -90 8 -73 39 8 16 23 21 78 23 88 5 86 5 90 -22z m2921 5
c7 -7 11 -21 8 -30 -6 -13 -20 -15 -83 -13 -79 3 -104 17 -92 50 7 18 146 13
167 -7z m355 -22 c3 -8 4 -19 0 -24 -7 -12 -184 -12 -184 1 0 8 71 32 125 42
29 6 53 -2 59 -19z m-3666 2 c29 -9 52 -20 52 -25 0 -6 -39 -10 -90 -10 -81 0
-90 2 -90 18 0 10 3 22 7 25 11 12 67 8 121 -8z m-273 -17 c14 -6 25 -15 25
-19 0 -8 -281 -17 -314 -11 -36 7 -12 20 62 31 42 7 84 14 92 16 24 6 109 -5
135 -17z m1475 6 c40 -8 38 -20 -6 -39 -55 -23 -284 -20 -284 4 0 10 42 34 75
42 30 8 159 4 215 -7z m1389 -9 c63 -32 31 -45 -116 -45 -76 0 -112 4 -138 17
-19 9 -35 20 -35 24 0 4 21 11 48 14 26 3 54 8 62 10 32 8 150 -5 179 -20z
m1459 4 c34 -6 62 -15 62 -20 0 -5 -75 -9 -167 -9 -154 0 -166 1 -151 16 34
34 109 38 256 13z m-2605 -40 c28 -14 167 -155 167 -168 0 -6 -16 -18 -35 -27
-36 -17 -43 -28 -25 -39 15 -9 41 -77 36 -92 -3 -7 -18 -13 -33 -13 -25 -1
-24 -2 11 -15 22 -8 43 -12 47 -9 5 2 20 2 34 -2 20 -5 25 -12 25 -39 0 -18
-3 -47 -6 -64 -6 -28 -10 -32 -30 -27 -16 4 -24 2 -24 -7 0 -10 -17 -12 -67
-10 -93 5 -106 9 -142 40 -53 47 -39 107 25 108 21 0 39 6 41 13 3 8 -6 12
-24 12 -16 0 -36 6 -45 13 -20 15 -32 53 -20 61 9 5 45 -3 85 -19 11 -5 17 -2
17 7 0 8 -18 21 -41 28 -22 8 -49 24 -59 37 -24 31 -34 29 -27 -6 4 -16 2 -43
-2 -59 -5 -17 -5 -34 0 -39 5 -5 5 -21 0 -38 -29 -94 -51 -171 -51 -180 0 -18
-90 -125 -105 -125 -9 0 -18 7 -22 16 -6 17 21 84 35 84 8 0 42 53 42 66 0 4
-16 -10 -35 -32 -45 -48 -74 -109 -75 -150 0 -48 -58 -100 -185 -167 -27 -15
-44 -27 -38 -27 18 0 125 41 148 56 11 8 26 14 34 14 23 0 -12 -33 -68 -64
-33 -17 -63 -26 -92 -26 -24 1 -72 0 -106 0 -34 -1 -72 4 -85 11 -22 13 -22
13 17 20 37 7 235 118 276 155 26 23 79 108 79 125 0 7 -15 -4 -32 -26 -49
-59 -79 -85 -99 -85 -29 0 -23 17 27 70 26 28 43 50 38 50 -5 0 -38 -23 -73
-50 -61 -47 -91 -61 -91 -41 0 4 24 31 54 60 74 69 77 78 14 38 -94 -59 -148
-71 -148 -33 0 9 16 41 36 72 36 56 34 58 -17 22 -39 -29 -80 -3 -47 30 9 9 8
12 -7 12 -22 1 -55 22 -55 37 0 5 6 15 12 21 7 7 13 26 14 43 1 16 9 38 18 48
16 18 15 18 -26 10 -76 -14 -127 -11 -150 11 -12 11 -28 20 -35 20 -7 0 -13 7
-13 15 0 8 -9 15 -20 15 -11 0 -20 7 -20 15 0 9 -9 15 -22 15 -30 0 -52 15
-44 29 5 7 -2 11 -18 11 -14 0 -26 4 -26 9 0 5 -10 11 -22 13 -34 5 -35 38 -3
64 l27 21 -26 7 c-14 3 -26 13 -26 20 0 26 15 26 333 11 60 -3 113 -7 117 -10
5 -3 30 -7 57 -10 118 -11 179 -18 197 -21 28 -5 153 22 226 50 71 26 139 32
173 15z m790 -5 c29 -8 60 -20 70 -25 45 -24 167 -39 240 -29 39 5 98 12 130
15 32 2 62 7 67 10 5 3 60 8 122 10 62 3 150 7 196 10 93 6 132 -1 132 -21 0
-7 -12 -17 -26 -20 l-26 -7 27 -21 c32 -26 31 -59 -3 -64 -12 -2 -22 -8 -22
-13 0 -5 -11 -9 -24 -9 -17 0 -23 -5 -22 -17 1 -13 -8 -19 -31 -21 -21 -2 -33
-9 -33 -18 0 -8 -6 -14 -14 -14 -8 0 -16 -7 -20 -15 -3 -8 -12 -15 -19 -15 -8
0 -22 -10 -33 -21 -17 -19 -27 -21 -89 -16 -38 3 -79 9 -89 13 -17 7 -17 4 4
-23 12 -17 20 -37 17 -45 -2 -7 3 -25 11 -40 15 -26 15 -29 -3 -43 -11 -8 -26
-15 -33 -15 -8 0 -10 -8 -6 -25 4 -17 2 -25 -7 -26 -28 -3 -44 3 -65 22 -36
33 -36 21 1 -33 38 -57 44 -85 19 -95 -18 -7 -83 21 -137 60 -62 45 -53 26 20
-44 87 -82 64 -94 -38 -19 -69 52 -107 65 -52 19 30 -25 63 -68 63 -81 0 -5
-9 -8 -19 -8 -11 0 -43 27 -75 63 -31 34 -56 56 -56 49 0 -24 79 -129 112
-149 18 -11 71 -44 118 -72 46 -29 103 -56 125 -60 38 -7 39 -8 17 -20 -12 -6
-51 -11 -85 -11 -34 1 -81 1 -105 1 -43 -1 -94 20 -142 58 -32 25 -20 38 17
17 35 -20 130 -56 146 -56 6 0 -11 12 -38 26 -113 60 -185 125 -185 167 0 46
-22 94 -65 142 -25 27 -45 44 -45 37 0 -6 16 -29 35 -51 52 -57 59 -123 11
-105 -9 3 -33 29 -53 57 -51 69 -83 177 -88 297 -3 52 -5 100 -5 105 0 6 -9 0
-19 -11 -9 -12 -39 -31 -64 -43 -26 -12 -47 -26 -47 -32 0 -7 7 -8 18 -4 29
12 86 24 91 19 3 -2 0 -17 -5 -32 -9 -25 -19 -30 -84 -49 -27 -8 12 -24 42
-17 20 4 29 0 37 -15 19 -35 13 -68 -20 -95 -35 -30 -49 -34 -141 -39 -51 -2
-68 0 -68 10 0 9 -8 11 -24 7 -20 -5 -24 -1 -30 27 -12 60 -7 99 12 100 45 4
69 8 97 17 l30 10 -27 1 c-39 1 -42 15 -14 73 25 52 22 78 -9 78 -7 0 -18 6
-24 14 -10 11 2 28 61 88 39 40 81 78 92 85 30 16 90 15 149 -3z m-2639 -20
c30 -12 16 -32 -39 -54 -54 -22 -54 -22 -34 -39 l21 -17 -26 -24 c-14 -14 -26
-28 -26 -32 0 -3 21 -6 48 -5 44 2 47 1 44 -22 -1 -14 -10 -33 -19 -43 -16
-18 -18 -17 -45 9 -15 15 -28 33 -28 40 0 7 -4 13 -10 13 -5 0 -15 12 -22 28
-12 25 -14 36 -9 84 3 39 99 80 145 62z m311 -3 c6 1 76 3 157 6 138 4 148 3
167 -16 22 -22 28 -51 11 -51 -5 0 -10 -5 -10 -10 0 -7 7 -7 20 0 16 9 22 8
26 -5 4 -8 1 -21 -5 -29 -9 -11 -7 -15 10 -19 16 -4 19 -11 14 -26 -5 -18 -2
-21 24 -21 21 0 31 -5 31 -15 0 -10 10 -15 29 -15 36 0 48 -15 29 -37 -11 -15
-10 -16 11 -10 18 4 24 1 28 -14 4 -13 14 -19 35 -19 25 0 28 -3 23 -20 -6
-18 -3 -20 21 -14 24 6 26 5 21 -15 -6 -25 -4 -25 59 -6 62 19 74 19 74 0 0
-17 -148 -91 -202 -100 -49 -9 -52 14 -5 45 31 21 31 21 5 16 -19 -4 -30 -1
-36 10 -8 14 -13 13 -47 -10 -56 -39 -140 -63 -159 -46 -20 16 -20 40 0 68 19
27 19 27 -62 -3 -36 -14 -82 -25 -100 -25 -30 0 -34 3 -34 27 0 15 10 37 22
50 l22 24 -67 -7 c-105 -11 -121 21 -43 88 l31 26 -82 -5 c-73 -5 -83 -4 -90
12 -9 24 48 72 94 81 18 3 31 10 28 14 -2 4 -28 3 -56 -3 -44 -9 -53 -8 -61 6
-5 10 -21 17 -38 17 -22 0 -28 4 -24 15 10 25 56 46 89 40 17 -3 35 -5 40 -4z
m3720 0 c6 -1 24 1 42 5 24 5 40 1 62 -16 39 -27 40 -44 2 -38 -23 3 -31 0
-35 -15 -4 -17 -11 -19 -45 -13 -21 3 -46 9 -55 12 -9 3 -16 1 -16 -5 0 -6 6
-11 13 -11 19 0 90 -40 103 -59 9 -12 10 -19 1 -30 -9 -10 -30 -12 -87 -8
l-75 5 37 -38 c21 -21 38 -45 38 -54 0 -21 -40 -30 -101 -22 -27 4 -49 4 -49
1 0 -3 9 -18 20 -33 47 -63 -4 -78 -122 -37 -39 14 -73 25 -75 25 -2 0 4 -11
13 -25 20 -31 12 -75 -15 -75 -29 0 -103 28 -145 57 -35 23 -40 24 -48 9 -7
-12 -16 -15 -31 -10 -17 5 -15 0 13 -27 29 -27 32 -34 17 -37 -35 -7 -199 59
-226 92 -11 13 -11 17 3 22 9 3 29 2 44 -4 15 -6 39 -13 54 -16 23 -5 25 -3
21 15 -5 19 -3 21 28 14 28 -6 32 -5 22 6 -20 20 -15 29 16 29 20 0 30 6 34
19 3 15 11 18 27 14 20 -5 21 -4 11 14 -15 29 9 49 38 33 18 -9 21 -8 21 11 0
18 5 21 35 17 37 -4 42 1 24 19 -14 14 -3 33 17 33 12 0 12 4 4 20 -15 28 -4
43 21 30 22 -12 24 -7 7 19 -10 17 -8 23 13 40 22 20 34 21 169 17 80 -2 150
-4 155 -5z m413 -11 c18 -11 36 -30 41 -43 13 -34 4 -90 -19 -109 -11 -9 -20
-20 -20 -25 0 -15 -51 -64 -61 -58 -16 11 -40 65 -33 76 4 7 23 9 50 5 48 -6
55 1 24 29 -24 22 -26 41 -4 53 12 7 4 14 -40 32 -53 21 -71 42 -43 53 28 12
74 6 105 -13z m-2157 -162 c45 -13 52 -40 19 -76 -28 -29 -49 -33 -160 -30
l-95 3 -3 42 c-4 59 19 73 122 73 43 0 96 -5 117 -12z m-2187 -74 c25 -10 18
-56 -15 -94 l-30 -35 -40 44 c-46 52 -49 68 -11 77 15 3 32 7 37 9 17 6 43 5
59 -1z m4259 -16 c20 -11 18 -16 -37 -76 l-30 -32 -33 32 c-34 33 -42 65 -20
87 13 13 87 7 120 -11z m-2148 -91 c24 -38 31 -114 11 -136 -19 -21 -75 -22
-100 -2 -20 17 -20 41 1 108 15 47 20 53 45 53 18 0 33 -8 43 -23z m-1942 -21
c-2 -31 -57 -96 -80 -96 -19 0 -113 72 -113 86 0 22 72 44 135 41 60 -2 60 -2
58 -31z m3965 14 c23 -10 42 -21 42 -24 0 -10 -109 -86 -123 -86 -29 0 -90 89
-80 118 7 19 111 15 161 -8z m-3154 -39 c11 -17 -38 -94 -70 -112 -51 -28 -93
-34 -101 -13 -4 10 -2 19 5 22 20 6 13 22 -10 22 -33 0 -11 17 74 56 77 36 93
40 102 25z m2308 -34 c70 -33 84 -47 46 -47 -17 0 -19 -3 -10 -12 18 -18 15
-48 -5 -48 -10 0 -41 11 -70 24 -41 19 -56 33 -72 67 -34 71 -12 74 111 16z
m-3031 -36 c23 -19 23 -21 8 -48 -12 -22 -22 -28 -48 -26 -33 1 -103 42 -95
55 4 6 85 35 105 37 4 1 17 -8 30 -18z m3769 -18 c8 -8 -44 -43 -84 -55 -35
-11 -39 -10 -57 13 -41 53 3 86 85 62 28 -8 53 -17 56 -20z m-3006 -7 c-4 -18
-1 -25 15 -29 33 -8 25 -20 -44 -66 -73 -49 -99 -50 -103 -5 -3 25 5 38 47 77
56 52 95 63 85 23z m2187 -20 c52 -48 67 -80 49 -101 -20 -24 -42 -18 -108 30
-59 43 -71 65 -36 65 9 0 14 8 13 18 -4 47 24 43 82 -12z m-2771 -1 c15 -18
-4 -83 -27 -92 -15 -6 -105 20 -134 38 -19 11 -1 29 54 51 52 21 91 22 107 3z
m3389 -8 c25 -12 46 -27 48 -33 4 -13 -89 -54 -124 -54 -18 0 -28 9 -39 35
-30 72 24 97 115 52z m-1934 -17 c12 -23 23 -30 44 -30 49 0 62 -67 24 -127
-12 -19 -21 -21 -66 -16 -29 2 -63 1 -77 -5 -19 -7 -31 -5 -52 11 l-28 21 -31
-23 c-17 -13 -32 -21 -34 -19 -8 8 22 127 39 152 25 40 75 66 123 66 37 0 44
-4 58 -30z m500 10 c36 -22 68 -87 79 -157 6 -42 -8 -61 -20 -28 -10 25 -42
28 -70 6 -21 -16 -30 -18 -55 -9 -17 6 -50 8 -75 5 -39 -4 -47 -1 -64 21 -22
28 -27 91 -8 110 7 7 24 12 39 12 20 0 30 7 39 30 11 27 17 30 58 30 27 0 57
-8 77 -20z m-1829 -25 c4 -8 -6 -31 -20 -50 -27 -35 -56 -44 -86 -25 -12 8 -8
16 25 50 40 41 71 51 81 25z m3098 -24 c41 -42 41 -61 -2 -61 -19 0 -35 11
-55 36 -55 68 -6 89 57 25z m-1533 -61 c7 -95 5 -100 -53 -100 -64 0 -65 2
-61 88 6 106 5 104 60 100 l48 -3 6 -85z m-1067 35 c-9 -35 11 -56 46 -49 40
9 47 -13 14 -47 -15 -16 -33 -29 -39 -29 -12 0 -75 81 -75 96 0 11 42 54 52
54 5 0 6 -11 2 -25z m2053 3 c13 -12 23 -27 23 -33 0 -18 -61 -95 -75 -95 -18
0 -67 59 -59 72 4 5 19 8 34 4 35 -7 55 14 46 49 -8 31 1 32 31 3z m-2386 -9
c15 -15 19 -28 14 -47 -9 -37 -11 -37 -48 -25 -25 9 -137 33 -154 33 -2 0 -3
4 -3 10 0 14 37 31 89 40 72 12 80 11 102 -11z m2847 -5 c42 -17 41 -32 -5
-40 -34 -5 -58 -11 -140 -31 -21 -5 -23 -2 -23 36 0 34 4 43 23 50 27 11 100
3 145 -15z m-1968 -14 c0 -5 -5 -10 -11 -10 -5 0 -7 5 -4 10 3 6 8 10 11 10 2
0 4 -4 4 -10z m950 -11 c0 -6 -4 -7 -10 -4 -5 3 -10 11 -10 16 0 6 5 7 10 4 6
-3 10 -11 10 -16z m-1739 -52 c21 -15 34 -57 19 -57 -6 0 -26 10 -45 23 -26
18 -32 26 -23 35 15 15 29 15 49 -1z m416 -4 c5 -13 -93 -73 -119 -73 -34 0
-14 51 30 75 31 17 84 16 89 -2z m1774 -6 c37 -25 52 -67 24 -67 -33 0 -129
65 -120 81 11 17 61 9 96 -14z m372 11 c4 -13 -52 -58 -72 -58 -13 0 -3 29 17
53 18 20 48 23 55 5z m-1808 -28 c0 -22 -29 -18 -33 3 -3 14 1 18 15 15 10 -2
18 -10 18 -18z m1039 11 c8 -12 -21 -34 -33 -27 -6 4 -8 13 -4 21 6 17 29 20
37 6z m-709 -91 c11 -4 28 -11 37 -13 21 -7 14 -43 -15 -75 -14 -15 -22 -38
-23 -68 -1 -25 -5 -48 -8 -51 -11 -11 -129 -22 -168 -16 -38 6 -38 6 -38 52 1
41 4 48 33 66 20 13 37 35 45 60 19 58 28 66 76 59 22 -3 50 -9 61 -14z m459
-2 c7 -13 17 -36 20 -51 4 -17 20 -36 41 -49 32 -18 35 -24 35 -68 0 -47 0
-47 -36 -53 -21 -4 -58 -4 -83 -1 -90 10 -88 9 -93 64 -3 33 -13 59 -27 73
-27 29 -29 77 -3 77 10 0 22 4 28 9 5 5 25 11 44 14 19 2 41 5 47 5 7 1 19 -8
27 -20z m-208 -63 c7 -22 13 -63 13 -92 1 -63 -12 -73 -94 -73 -78 0 -95 11
-95 61 0 23 7 65 15 94 l16 53 67 -1 66 -2 12 -40z m-33 -214 l44 -19 6 -63
c6 -49 4 -66 -8 -79 -37 -40 -168 -31 -184 13 -8 20 0 121 10 131 5 5 72 34
81 35 3 1 26 -8 51 -18z m-185 -33 c4 -23 -30 -138 -41 -138 -5 0 -22 8 -38
17 -28 16 -31 16 -74 -5 l-46 -22 7 52 c5 40 14 61 38 86 29 31 34 33 91 30
47 -2 60 -7 63 -20z m428 -6 c27 -23 33 -36 38 -85 l6 -58 -39 23 c-39 22 -40
22 -77 5 -20 -10 -40 -14 -44 -10 -4 4 -15 34 -24 66 -22 74 -13 87 58 87 41
0 57 -6 82 -28z m-458 -227 c28 -1 55 -4 58 -8 3 -3 -7 -28 -23 -56 -28 -51
-28 -51 -78 -51 l-50 0 -16 54 c-18 63 -10 82 31 70 14 -3 49 -7 78 -9z m206
-6 c36 -21 43 -37 48 -114 l3 -40 -89 -3 -89 -3 7 47 c3 26 6 57 6 70 0 17 11
29 38 43 20 11 38 20 39 21 1 0 18 -9 37 -21z m244 9 c7 -9 6 -28 -2 -63 l-13
-50 -54 -3 -54 -3 -26 50 c-31 57 -25 71 31 64 21 -3 46 0 56 6 25 14 49 14
62 -1z m-472 -192 c11 -8 31 -16 44 -18 21 -2 25 -9 28 -44 3 -39 1 -43 -30
-55 -18 -7 -36 -14 -40 -16 -3 -2 -10 6 -13 19 -4 13 -21 39 -36 59 -32 40
-35 55 -16 62 22 10 42 7 63 -7z m450 -1 c4 -8 -6 -31 -20 -49 -14 -19 -31
-47 -36 -61 -6 -15 -13 -25 -18 -23 -4 3 -22 10 -40 17 -31 12 -33 16 -30 54
3 38 6 42 36 48 19 4 39 12 45 18 16 16 57 13 63 -4z m-216 -134 c5 -11 10
-38 10 -61 0 -34 -4 -42 -26 -50 -14 -6 -36 -7 -50 -4 -22 6 -24 11 -24 64 0
62 5 68 52 69 17 1 31 -6 38 -18z m-156 -93 c27 -25 49 -118 27 -118 -6 0 -11
10 -11 23 0 24 -28 56 -67 76 -13 6 -23 18 -23 26 0 23 45 18 74 -7z m304 5
c2 -7 -9 -18 -25 -24 -41 -15 -73 -49 -73 -78 0 -17 -3 -22 -10 -15 -17 17 5
95 32 116 25 20 69 20 76 1z m-158 -144 c0 -18 -29 -30 -49 -19 -31 16 -25 28
14 27 19 -1 35 -4 35 -8z"/>
<path d="M2753 5363 c9 -2 25 -2 35 0 9 3 1 5 -18 5 -19 0 -27 -2 -17 -5z"/>
<path d="M2400 5140 c0 -5 5 -10 10 -10 6 0 10 5 10 10 0 6 -4 10 -10 10 -5 0
-10 -4 -10 -10z"/>
<path d="M7363 5363 c9 -2 25 -2 35 0 9 3 1 5 -18 5 -19 0 -27 -2 -17 -5z"/>
<path d="M7730 5140 c0 -5 7 -10 16 -10 8 0 12 5 9 10 -3 6 -10 10 -16 10 -5
0 -9 -4 -9 -10z"/>
<path d="M4948 4465 c-36 -20 -46 -59 -23 -85 26 -28 55 -25 98 11 29 24 37
37 35 58 -3 23 -8 26 -43 28 -22 2 -52 -4 -67 -12z"/>
<path d="M5138 4469 c-42 -24 2 -109 55 -109 35 0 61 33 53 66 -12 48 -65 69
-108 43z"/>
<path d="M5062 4325 c-15 -33 -5 -55 24 -55 25 0 29 14 18 58 -8 29 -28 28
-42 -3z"/>
<path d="M5330 3909 c0 -5 5 -7 10 -4 6 3 10 8 10 11 0 2 -4 4 -10 4 -5 0 -10
-5 -10 -11z"/>
<path d="M3796 2847 c-133 -117 -457 -404 -542 -481 -51 -44 -90 -84 -88 -87
5 -10 924 -312 930 -307 2 3 0 16 -5 29 -5 13 -58 221 -118 462 -59 240 -110
437 -113 437 -3 0 -32 -24 -64 -53z"/>
<path d="M6286 2878 c-35 -126 -226 -902 -222 -905 6 -6 926 300 926 308 0 7
-686 619 -694 619 -2 0 -7 -10 -10 -22z"/>
<path d="M1170 2008 c-198 -69 -455 -319 -687 -668 -181 -272 -315 -557 -403
-857 -55 -186 -78 -328 -62 -382 14 -45 49 -64 77 -41 20 17 19 25 -6 60 -32
42 -28 139 10 282 98 369 348 801 708 1225 172 203 335 322 440 323 61 0 78
-28 69 -116 -14 -133 -94 -340 -304 -779 -117 -245 -162 -358 -162 -406 0 -57
47 -26 70 46 55 175 306 510 493 660 177 141 274 163 270 60 -3 -76 -39 -170
-164 -420 -131 -264 -169 -373 -169 -484 0 -114 54 -180 96 -116 17 26 17 28
-7 71 -19 36 -24 58 -23 113 2 117 49 237 188 479 172 301 209 401 168 452
-18 22 -28 25 -79 24 -67 -1 -138 -29 -235 -95 -76 -52 -259 -228 -336 -324
-31 -38 -60 -74 -65 -80 -10 -12 15 47 78 180 127 271 218 519 230 630 18 154
-52 213 -195 163z"/>
<path d="M6348 1873 c-25 -28 -133 -231 -226 -423 -252 -524 -437 -1000 -479
-1237 -19 -108 -9 -166 32 -185 41 -18 58 5 50 67 -16 135 53 345 240 730 229
470 469 806 626 880 125 58 191 15 191 -124 0 -93 -35 -229 -86 -337 -104
-220 -233 -344 -355 -344 -46 0 -52 3 -67 31 -26 51 -4 127 57 197 33 37 37
67 12 80 -79 45 -173 -208 -113 -305 36 -60 132 -63 230 -6 148 86 330 336
395 543 33 104 39 227 12 276 -40 76 -111 105 -201 85 -145 -32 -343 -249
-549 -601 -75 -129 -242 -467 -308 -622 -29 -70 -55 -126 -57 -124 -5 6 66
191 130 336 33 74 108 229 168 345 91 178 153 291 363 665 19 34 23 51 16 68
-10 27 -59 30 -81 5z"/>
<path d="M7015 1310 c-55 -22 -86 -100 -43 -108 35 -7 96 85 72 108 -5 4 -18
4 -29 0z"/>
<path d="M8662 1225 c-37 -17 -95 -65 -195 -162 -209 -202 -319 -280 -412
-290 -30 -4 -44 -1 -54 11 -17 20 -6 48 49 131 38 57 49 97 32 121 -4 6 -23
19 -42 29 -19 9 -43 24 -52 32 -16 15 -16 17 7 35 43 34 6 69 -45 43 -30 -15
-60 -61 -60 -89 0 -21 -128 -109 -237 -163 -157 -78 -243 -69 -243 25 0 21 10
58 23 82 20 39 26 44 62 47 22 2 60 14 85 26 84 41 85 109 2 115 -60 4 -107
-22 -188 -104 -119 -122 -285 -215 -387 -218 -38 -1 -52 3 -63 18 -21 29 -17
79 10 147 34 82 24 103 -38 79 -53 -20 -90 -147 -63 -212 29 -70 100 -91 208
-64 67 17 161 59 218 97 l34 23 -7 -28 c-4 -15 -2 -43 4 -62 41 -122 310 -71
541 103 53 40 63 44 87 35 15 -6 35 -13 45 -16 17 -6 17 -7 -2 -35 -35 -49
-61 -114 -61 -154 0 -57 43 -97 104 -97 84 0 213 69 338 180 31 27 59 50 62
50 3 0 5 -16 4 -35 -2 -47 31 -81 91 -94 89 -19 252 31 393 121 l55 36 -5 -44
c-20 -181 292 -145 555 64 41 32 44 33 80 21 55 -19 57 -23 28 -64 -14 -21
-32 -62 -41 -91 -13 -47 -13 -56 0 -88 39 -92 187 -66 357 63 80 60 123 104
157 162 l25 44 -24 -20 c-13 -11 -49 -43 -79 -71 -119 -110 -254 -194 -312
-194 -71 0 -75 30 -17 121 75 116 74 141 -11 184 -55 28 -60 39 -30 55 41 22
8 66 -36 50 -27 -11 -64 -57 -64 -81 0 -37 -201 -170 -315 -209 -79 -27 -120
-26 -150 5 -29 28 -30 35 -10 102 16 54 34 75 68 80 120 16 190 79 141 127
-20 21 -86 20 -127 0 -18 -10 -66 -49 -107 -88 -113 -108 -217 -177 -334 -221
-87 -33 -129 -33 -163 1 -21 21 -24 32 -20 61 19 114 164 282 224 259 7 -3 13
-19 13 -35 0 -35 15 -48 35 -31 21 18 18 57 -5 80 -27 27 -73 25 -138 -5z
m-1102 -66 c-13 -23 -55 -52 -70 -47 -5 1 6 20 25 41 36 39 64 43 45 6z m1660
17 c0 -15 -55 -66 -71 -66 -14 0 -11 7 22 45 33 37 49 44 49 21z"/>
<path d="M2010 1223 c-62 -21 -138 -72 -179 -118 -72 -82 -106 -211 -62 -235
53 -28 126 11 239 128 39 41 72 72 72 69 0 -2 -7 -18 -15 -33 -22 -42 -19
-106 6 -137 56 -73 231 -50 389 51 35 22 66 39 68 37 2 -1 -2 -21 -8 -44 -11
-41 -6 -85 13 -108 13 -17 71 -16 105 1 27 14 108 96 190 191 53 61 51 51 -25
-135 -47 -114 -64 -144 -108 -190 -287 -301 -484 -597 -446 -668 51 -96 233
65 398 350 20 34 68 137 108 227 l71 165 95 68 c94 68 296 178 325 178 11 0
14 -5 9 -17 -4 -10 -10 -40 -13 -67 -4 -40 -1 -52 13 -63 49 -35 128 6 243
125 39 41 72 72 72 69 0 -2 -7 -18 -15 -33 -22 -42 -19 -106 6 -137 68 -87
272 -41 465 103 48 36 54 38 85 28 19 -6 40 -13 47 -14 9 -3 6 -13 -11 -36
-51 -67 -72 -161 -47 -207 15 -29 65 -44 119 -38 83 10 219 91 338 200 l46 42
-7 -35 c-8 -44 14 -80 50 -80 49 0 98 32 192 123 72 70 90 84 77 58 -26 -52
-25 -114 4 -145 57 -60 171 -55 316 13 86 41 225 143 225 166 0 28 -20 25 -57
-8 -122 -108 -311 -192 -377 -167 -53 20 -56 63 -10 182 14 36 15 51 7 59 -21
21 -61 0 -165 -91 -149 -129 -177 -140 -139 -54 61 137 223 247 295 200 14 -8
31 -28 38 -43 15 -32 51 -38 56 -10 6 28 -26 67 -66 84 -53 22 -153 14 -225
-19 -41 -19 -91 -60 -178 -143 -151 -146 -257 -230 -334 -267 -86 -40 -145
-35 -145 13 0 9 20 47 45 85 74 112 73 130 -13 177 -57 31 -62 41 -32 57 24
13 26 45 4 54 -35 13 -104 -46 -104 -90 0 -43 -217 -174 -325 -196 -46 -9 -58
-8 -80 6 -21 14 -25 24 -25 64 1 27 11 71 25 102 20 46 21 57 10 69 -22 23
-55 6 -155 -81 -90 -78 -142 -118 -155 -118 -14 0 -2 46 21 86 52 89 174 184
236 184 33 0 65 -22 82 -57 19 -41 49 -42 54 -2 2 19 -5 33 -28 52 -84 71
-252 38 -376 -75 -40 -37 -84 -64 -162 -97 -91 -40 -221 -114 -311 -179 -24
-16 -24 -16 -19 3 3 11 18 61 32 110 35 116 43 175 26 175 -7 0 -70 -56 -140
-124 -117 -114 -162 -147 -177 -132 -13 13 20 87 82 181 75 115 81 148 28 153
-29 3 -36 -3 -78 -58 -25 -34 -45 -66 -45 -70 0 -17 -129 -105 -217 -147 -110
-54 -183 -63 -212 -26 -22 26 -15 92 18 163 17 38 18 47 6 59 -22 23 -55 6
-155 -81 -90 -78 -142 -118 -155 -118 -14 0 -2 46 21 86 52 89 174 184 236
184 32 0 67 -22 78 -51 19 -46 60 -50 60 -5 0 23 -28 55 -67 75 -31 16 -130
13 -183 -6z m594 -735 c-79 -136 -160 -250 -219 -308 -131 -129 4 93 203 332
40 49 74 88 77 88 2 0 -25 -50 -61 -112z"/>
</g>
</svg>
