<svg xmlns="http://www.w3.org/2000/svg" xmlns:xlink="http://www.w3.org/1999/xlink" width="1080" zoomAndPan="magnify" viewBox="0 0 810 1012.49997" height="1350" preserveAspectRatio="xMidYMid meet" version="1.0"><defs><clipPath id="2dc8cafcc0"><path d="M 0.199219 0 L 809.800781 0 L 809.800781 1012 L 0.199219 1012 Z M 0.199219 0 " clip-rule="nonzero"/></clipPath><clipPath id="0767e6a9d8"><path d="M 243.078125 377.679688 L 563 377.679688 L 563 634 L 243.078125 634 Z M 243.078125 377.679688 " clip-rule="nonzero"/></clipPath></defs><g clip-path="url(#2dc8cafcc0)"><path fill="#ffffff" d="M 0.199219 0 L 809.800781 0 L 809.800781 1012 L 0.199219 1012 Z M 0.199219 0 " fill-opacity="1" fill-rule="nonzero"/><path fill="#ffffff" d="M 0.199219 0 L 809.800781 0 L 809.800781 1012 L 0.199219 1012 Z M 0.199219 0 " fill-opacity="1" fill-rule="nonzero"/></g><g clip-path="url(#0767e6a9d8)"><path fill="#000000" d="M 559.550781 531.1875 C 555.660156 525.332031 548.71875 522.386719 538.617188 522.597656 C 538.113281 522.605469 537.628906 522.703125 537.164062 522.894531 L 514.644531 532.179688 L 514.644531 398.394531 C 514.644531 397.71875 514.609375 397.046875 514.542969 396.371094 C 514.476562 395.699219 514.375 395.03125 514.246094 394.371094 C 514.113281 393.707031 513.945312 393.054688 513.75 392.40625 C 513.554688 391.761719 513.324219 391.125 513.066406 390.5 C 512.808594 389.875 512.519531 389.265625 512.199219 388.671875 C 511.878906 388.074219 511.53125 387.496094 511.15625 386.933594 C 510.78125 386.375 510.378906 385.832031 509.949219 385.308594 C 509.519531 384.785156 509.066406 384.285156 508.585938 383.808594 C 508.109375 383.332031 507.609375 382.878906 507.085938 382.449219 C 506.5625 382.019531 506.019531 381.617188 505.457031 381.242188 C 504.894531 380.867188 504.316406 380.519531 503.71875 380.203125 C 503.125 379.882812 502.511719 379.59375 501.890625 379.335938 C 501.265625 379.074219 500.628906 378.847656 499.980469 378.652344 C 499.332031 378.457031 498.679688 378.289062 498.015625 378.160156 C 497.351562 378.027344 496.683594 377.925781 496.011719 377.859375 C 495.335938 377.792969 494.664062 377.757812 493.988281 377.757812 L 346.003906 377.757812 C 345.328125 377.757812 344.652344 377.792969 343.980469 377.859375 C 343.308594 377.925781 342.636719 378.027344 341.976562 378.160156 C 341.3125 378.289062 340.65625 378.457031 340.007812 378.652344 C 339.363281 378.847656 338.726562 379.074219 338.101562 379.335938 C 337.476562 379.59375 336.867188 379.882812 336.269531 380.203125 C 335.675781 380.519531 335.09375 380.867188 334.53125 381.242188 C 333.96875 381.617188 333.425781 382.019531 332.90625 382.449219 C 332.382812 382.878906 331.882812 383.332031 331.402344 383.808594 C 330.925781 384.285156 330.472656 384.785156 330.042969 385.308594 C 329.613281 385.832031 329.210938 386.375 328.835938 386.933594 C 328.457031 387.496094 328.109375 388.074219 327.792969 388.671875 C 327.472656 389.265625 327.183594 389.875 326.925781 390.5 C 326.664062 391.125 326.4375 391.761719 326.242188 392.40625 C 326.042969 393.054688 325.878906 393.707031 325.746094 394.371094 C 325.613281 395.03125 325.515625 395.699219 325.445312 396.371094 C 325.378906 397.046875 325.347656 397.71875 325.34375 398.394531 L 325.34375 510.796875 L 302.328125 510.796875 L 302.328125 496.941406 C 302.328125 496.679688 302.300781 496.421875 302.25 496.164062 C 302.199219 495.910156 302.125 495.660156 302.023438 495.421875 C 301.925781 495.179688 301.800781 494.953125 301.65625 494.734375 C 301.511719 494.519531 301.347656 494.316406 301.164062 494.132812 C 300.980469 493.949219 300.777344 493.785156 300.5625 493.640625 C 300.34375 493.496094 300.117188 493.371094 299.875 493.273438 C 299.632812 493.171875 299.386719 493.097656 299.128906 493.046875 C 298.875 492.996094 298.613281 492.972656 298.355469 492.972656 L 246.882812 492.972656 C 246.621094 492.972656 246.363281 492.996094 246.109375 493.046875 C 245.851562 493.097656 245.601562 493.171875 245.363281 493.273438 C 245.121094 493.371094 244.890625 493.496094 244.675781 493.640625 C 244.457031 493.785156 244.257812 493.949219 244.074219 494.132812 C 243.890625 494.316406 243.722656 494.519531 243.578125 494.734375 C 243.433594 494.953125 243.3125 495.179688 243.210938 495.421875 C 243.113281 495.660156 243.035156 495.910156 242.984375 496.164062 C 242.933594 496.421875 242.910156 496.679688 242.910156 496.941406 L 242.910156 621.15625 C 242.910156 621.417969 242.933594 621.675781 242.984375 621.933594 C 243.035156 622.1875 243.113281 622.4375 243.210938 622.675781 C 243.3125 622.917969 243.433594 623.144531 243.578125 623.363281 C 243.722656 623.578125 243.890625 623.78125 244.074219 623.964844 C 244.257812 624.148438 244.457031 624.3125 244.675781 624.457031 C 244.890625 624.601562 245.121094 624.722656 245.363281 624.824219 C 245.601562 624.925781 245.851562 625 246.109375 625.050781 C 246.363281 625.101562 246.621094 625.125 246.882812 625.125 L 298.355469 625.125 C 298.613281 625.125 298.875 625.101562 299.128906 625.050781 C 299.386719 625 299.632812 624.925781 299.875 624.824219 C 300.117188 624.722656 300.34375 624.601562 300.5625 624.457031 C 300.777344 624.3125 300.980469 624.148438 301.164062 623.964844 C 301.347656 623.78125 301.511719 623.578125 301.65625 623.363281 C 301.800781 623.144531 301.925781 622.917969 302.023438 622.675781 C 302.125 622.4375 302.199219 622.1875 302.25 621.933594 C 302.300781 621.675781 302.328125 621.417969 302.328125 621.15625 L 302.328125 609.78125 L 333.710938 609.78125 L 386.492188 629.800781 C 393.574219 632.5625 400.917969 633.957031 408.523438 633.988281 C 415.46875 634.070312 422.089844 632.652344 428.386719 629.734375 C 446.46875 621.101562 553.203125 562.496094 557.753906 560.003906 C 558.542969 559.574219 559.117188 558.945312 559.476562 558.125 C 559.742188 557.457031 566.546875 541.71875 559.550781 531.1875 Z M 445.261719 385.695312 L 445.261719 463.625 L 422.617188 443.964844 C 422.253906 443.652344 421.847656 443.410156 421.398438 443.246094 C 420.953125 443.078125 420.488281 442.992188 420.007812 442.992188 C 419.53125 442.992188 419.066406 443.078125 418.617188 443.246094 C 418.167969 443.410156 417.765625 443.652344 417.402344 443.964844 L 394.757812 463.625 L 394.757812 385.695312 Z M 333.289062 398.394531 C 333.289062 397.5625 333.371094 396.734375 333.535156 395.917969 C 333.699219 395.097656 333.9375 394.304688 334.257812 393.535156 C 334.578125 392.765625 334.96875 392.03125 335.433594 391.339844 C 335.898438 390.644531 336.425781 390.003906 337.015625 389.414062 C 337.605469 388.824219 338.246094 388.296875 338.941406 387.835938 C 339.636719 387.371094 340.367188 386.980469 341.140625 386.660156 C 341.910156 386.34375 342.703125 386.101562 343.523438 385.9375 C 344.34375 385.777344 345.167969 385.695312 346.003906 385.695312 L 386.777344 385.695312 L 386.777344 472.328125 C 386.777344 473.105469 386.988281 473.820312 387.40625 474.472656 C 387.828125 475.128906 388.394531 475.617188 389.101562 475.9375 C 389.808594 476.261719 390.550781 476.367188 391.320312 476.253906 C 392.089844 476.144531 392.769531 475.832031 393.355469 475.324219 L 419.972656 452.222656 L 446.589844 475.324219 C 447.179688 475.832031 447.859375 476.144531 448.628906 476.253906 C 449.398438 476.367188 450.136719 476.261719 450.84375 475.9375 C 451.554688 475.617188 452.117188 475.128906 452.539062 474.472656 C 452.960938 473.820312 453.171875 473.105469 453.171875 472.328125 L 453.171875 385.695312 L 493.992188 385.695312 C 494.824219 385.695312 495.652344 385.777344 496.472656 385.9375 C 497.289062 386.101562 498.085938 386.34375 498.855469 386.660156 C 499.625 386.980469 500.359375 387.371094 501.054688 387.835938 C 501.746094 388.296875 502.390625 388.824219 502.980469 389.414062 C 503.570312 390.003906 504.097656 390.644531 504.5625 391.339844 C 505.023438 392.03125 505.417969 392.765625 505.734375 393.535156 C 506.054688 394.304688 506.296875 395.097656 506.460938 395.917969 C 506.621094 396.734375 506.703125 397.5625 506.703125 398.394531 L 506.703125 535.457031 L 457.996094 555.542969 C 457.375 542.390625 444.628906 532.921875 443.988281 532.445312 C 443.289062 531.9375 442.507812 531.683594 441.644531 531.683594 L 385.628906 531.683594 L 335.949219 511.101562 C 335.460938 510.898438 334.953125 510.796875 334.421875 510.796875 L 333.289062 510.796875 Z M 294.382812 617.195312 L 250.855469 617.195312 L 250.855469 500.917969 L 294.382812 500.917969 Z M 552.660156 553.734375 C 540.394531 560.480469 441.820312 614.53125 424.933594 622.570312 C 408.605469 630.339844 389.765625 622.570312 389.4375 622.445312 L 335.835938 602.101562 C 335.382812 601.929688 334.914062 601.84375 334.425781 601.84375 L 302.328125 601.84375 L 302.328125 518.734375 L 333.632812 518.734375 L 383.324219 539.316406 C 383.808594 539.519531 384.316406 539.621094 384.84375 539.617188 L 440.253906 539.617188 C 443.316406 542.191406 452.519531 550.914062 449.433594 560.609375 C 449.347656 560.902344 449.296875 561.203125 449.28125 561.507812 C 449.109375 561.707031 448.960938 561.921875 448.832031 562.152344 C 446.832031 566.109375 444.003906 569.339844 440.347656 571.84375 L 388.03125 571.84375 C 387.769531 571.84375 387.511719 571.867188 387.257812 571.917969 C 387 571.972656 386.753906 572.046875 386.511719 572.144531 C 386.269531 572.246094 386.042969 572.367188 385.824219 572.511719 C 385.609375 572.65625 385.40625 572.820312 385.222656 573.007812 C 385.039062 573.191406 384.875 573.390625 384.730469 573.605469 C 384.582031 573.824219 384.460938 574.054688 384.363281 574.292969 C 384.261719 574.535156 384.1875 574.78125 384.136719 575.039062 C 384.085938 575.292969 384.058594 575.550781 384.058594 575.8125 C 384.058594 576.074219 384.085938 576.332031 384.136719 576.585938 C 384.1875 576.84375 384.261719 577.089844 384.363281 577.332031 C 384.460938 577.570312 384.582031 577.800781 384.730469 578.015625 C 384.875 578.234375 385.039062 578.433594 385.222656 578.617188 C 385.40625 578.800781 385.609375 578.96875 385.824219 579.113281 C 386.042969 579.257812 386.269531 579.378906 386.511719 579.480469 C 386.753906 579.578125 387 579.652344 387.257812 579.703125 C 387.511719 579.753906 387.769531 579.78125 388.03125 579.78125 L 441.640625 579.78125 C 442.488281 579.78125 443.257812 579.53125 443.949219 579.039062 C 446.550781 577.339844 448.882812 575.328125 450.945312 573.003906 C 453.007812 570.683594 454.726562 568.128906 456.101562 565.34375 C 456.148438 565.1875 456.179688 565.03125 456.207031 564.871094 L 539.480469 530.53125 C 546.179688 530.53125 550.703125 532.238281 552.917969 535.566406 C 556.367188 540.730469 554.21875 549.519531 552.660156 553.734375 Z M 552.660156 553.734375 " fill-opacity="1" fill-rule="nonzero"/></g></svg>