<svg xmlns="http://www.w3.org/2000/svg" xmlns:xlink="http://www.w3.org/1999/xlink" width="1080" zoomAndPan="magnify" viewBox="0 0 810 1012.49997" height="1350" preserveAspectRatio="xMidYMid meet" version="1.0"><defs><clipPath id="60a0203bf8"><path d="M 243.078125 320.023438 L 566.921875 320.023438 L 566.921875 643.863281 L 243.078125 643.863281 Z M 243.078125 320.023438 " clip-rule="nonzero"/></clipPath></defs><g clip-path="url(#60a0203bf8)"><path fill="#000000" d="M 311.863281 574.980469 L 260.125 523.246094 C 248.761719 511.878906 243.078125 496.910156 243.078125 481.941406 C 243.078125 466.976562 248.761719 452.007812 260.125 440.648438 L 311.351562 389.414062 C 313.882812 386.882812 317.984375 386.882812 320.511719 389.414062 L 390.5625 459.460938 C 393.632812 462.539062 395.972656 466.132812 397.566406 470 C 399.210938 474.007812 400.039062 478.25 400.039062 482.453125 C 400.039062 486.65625 399.210938 490.898438 397.566406 494.902344 C 395.972656 498.777344 393.632812 502.371094 390.5625 505.441406 L 321.023438 574.980469 C 318.496094 577.515625 314.390625 577.515625 311.863281 574.980469 Z M 482.46875 590.648438 L 446.300781 626.816406 C 434.9375 638.183594 419.96875 643.863281 405 643.863281 C 390.03125 643.863281 375.0625 638.183594 363.699219 626.816406 L 328.042969 591.160156 C 325.511719 588.628906 325.511719 584.527344 328.042969 582.003906 L 397.585938 512.460938 C 398.347656 511.699219 398.839844 511.191406 399.0625 510.953125 C 399.320312 510.667969 399.773438 510.125 400.421875 509.328125 C 402.6875 506.5625 406.761719 506.152344 409.527344 508.421875 C 409.929688 508.742188 410.277344 509.113281 410.582031 509.507812 L 411.339844 510.335938 L 412.414062 511.4375 L 482.46875 581.492188 C 485 584.015625 485 588.117188 482.46875 590.648438 Z M 437.144531 617.65625 L 468.730469 586.070312 L 405.511719 522.851562 L 341.78125 586.582031 L 372.855469 617.65625 C 381.691406 626.492188 393.339844 630.910156 405 630.910156 C 416.65625 630.910156 428.308594 626.492188 437.144531 617.65625 Z M 446.300781 337.070312 L 481.957031 372.726562 C 484.484375 375.25 484.484375 379.351562 481.957031 381.882812 L 412.414062 451.417969 C 411.640625 452.203125 411.152344 452.699219 410.9375 452.933594 C 410.6875 453.210938 410.226562 453.757812 409.578125 454.550781 C 407.3125 457.316406 403.238281 457.726562 400.472656 455.460938 C 400.070312 455.136719 399.714844 454.765625 399.417969 454.371094 L 398.644531 453.527344 L 397.585938 452.449219 L 327.53125 382.394531 C 325.003906 379.867188 325.003906 375.761719 327.53125 373.234375 L 363.699219 337.070312 C 375.0625 325.703125 390.03125 320.023438 405 320.023438 C 419.96875 320.023438 434.9375 325.703125 446.300781 337.070312 Z M 468.214844 377.304688 L 437.144531 346.226562 C 428.308594 337.394531 416.660156 332.976562 405 332.976562 C 393.339844 332.976562 381.691406 337.394531 372.855469 346.226562 L 341.269531 377.816406 L 404.488281 441.027344 Z M 269.285156 514.085938 L 316.441406 561.246094 L 381.40625 496.28125 C 383.285156 494.40625 384.6875 492.261719 385.621094 489.992188 C 386.59375 487.628906 387.085938 485.058594 387.085938 482.453125 C 387.085938 479.84375 386.59375 477.28125 385.621094 474.910156 C 384.6875 472.648438 383.285156 470.503906 381.40625 468.625 L 315.929688 403.152344 L 269.285156 449.796875 C 260.449219 458.632812 256.035156 470.285156 256.035156 481.941406 C 256.035156 493.601562 260.449219 505.253906 269.285156 514.085938 Z M 498.136719 388.902344 L 549.871094 440.640625 C 561.238281 452.007812 566.921875 466.976562 566.921875 481.941406 C 566.921875 496.910156 561.238281 511.878906 549.871094 523.238281 L 498.648438 574.46875 C 496.121094 576.996094 492.015625 576.996094 489.488281 574.46875 L 419.4375 504.417969 C 416.367188 501.347656 414.027344 497.753906 412.433594 493.878906 C 410.789062 489.871094 409.960938 485.632812 409.960938 481.429688 C 409.960938 477.222656 410.789062 472.984375 412.433594 468.976562 C 414.027344 465.101562 416.367188 461.507812 419.4375 458.4375 L 488.976562 388.902344 C 491.503906 386.371094 495.605469 386.371094 498.136719 388.902344 Z M 540.714844 449.804688 L 493.558594 402.640625 L 428.59375 467.597656 C 426.714844 469.480469 425.3125 471.617188 424.378906 473.886719 C 423.40625 476.25 422.914062 478.820312 422.914062 481.429688 C 422.914062 484.035156 423.40625 486.605469 424.378906 488.96875 C 425.3125 491.238281 426.714844 493.375 428.59375 495.257812 L 494.070312 560.734375 L 540.714844 514.085938 C 549.550781 505.253906 553.964844 493.601562 553.964844 481.941406 C 553.964844 470.285156 549.550781 458.632812 540.714844 449.804688 Z M 540.714844 449.804688 " fill-opacity="1" fill-rule="nonzero"/></g></svg>